<?xml version="1.0" encoding="UTF-8" standalone="no"?>
<!-- Created with Inkscape (http://www.inkscape.org/) -->

<svg
   xmlns:dc="http://purl.org/dc/elements/1.1/"
   xmlns:cc="http://creativecommons.org/ns#"
   xmlns:rdf="http://www.w3.org/1999/02/22-rdf-syntax-ns#"
   xmlns:svg="http://www.w3.org/2000/svg"
   xmlns="http://www.w3.org/2000/svg"
   xmlns:sodipodi="http://sodipodi.sourceforge.net/DTD/sodipodi-0.dtd"
   xmlns:inkscape="http://www.inkscape.org/namespaces/inkscape"
   width="168.90474"
   height="166.87531"
   id="svg3165"
   version="1.1"
   inkscape:version="0.48.4 r9939"
   sodipodi:docname="facebook.svg">
  <defs
     id="defs3167" />
  <sodipodi:namedview
     id="base"
     pagecolor="#ffffff"
     bordercolor="#666666"
     borderopacity="1.0"
     inkscape:pageopacity="0.0"
     inkscape:pageshadow="2"
     inkscape:zoom="3.959798"
     inkscape:cx="92.401602"
     inkscape:cy="92.525026"
     inkscape:document-units="px"
     inkscape:current-layer="layer1"
     showgrid="false"
     fit-margin-top="0"
     fit-margin-left="0"
     fit-margin-right="0"
     fit-margin-bottom="0"
     inkscape:window-width="1264"
     inkscape:window-height="1001"
     inkscape:window-x="1280"
     inkscape:window-y="0"
     inkscape:window-maximized="0" />
  <metadata
     id="metadata3170">
    <rdf:RDF>
      <cc:Work
         rdf:about="">
        <dc:format>image/svg+xml</dc:format>
        <dc:type
           rdf:resource="http://purl.org/dc/dcmitype/StillImage" />
        <dc:title />
      </cc:Work>
    </rdf:RDF>
  </metadata>
  <g
     inkscape:label="Layer 1"
     inkscape:groupmode="layer"
     id="layer1"
     transform="translate(-220.5699,-206.25762)">
    <path
       style="fill:none;stroke:#ffffff;stroke-width:3;stroke-linecap:butt;stroke-linejoin:miter;stroke-opacity:1;stroke-miterlimit:4;stroke-dasharray:none"
       d="m 261.60828,282.08281 c -5.9032,-1.01495 -12.02301,-0.21464 -18.01654,-0.47173 -2.64977,0 -5.29953,0 -7.9493,0 -1.17727,1.48269 -2.74895,3.25221 -2.27771,6.3634 -0.86647,5.09898 -0.28878,10.81255 -0.45554,16.21165 0.24829,3.1262 -0.3089,5.46368 -0.43346,8.16695 -0.68097,3.25469 -0.5027,6.56987 -0.93317,9.634 -0.68479,1.933 -0.25799,4.93248 -0.91107,7.26857 -0.54991,4.16111 -1.86462,8.92185 -0.91109,12.26493 1.56477,2.49973 3.50724,5.17568 5.92204,6.6042 3.35806,1.04489 7.15792,1.98582 11.34202,1.88692 3.96352,0 7.92704,0 11.89057,0 1.778,1.27638 7.00813,0.76021 5.92203,-3.30211 0.49562,-4.22394 1.27179,-8.34655 1.36663,-12.73665 1.36912,-3.19538 0.38938,-7.54167 1.36662,-10.84976 0.89971,-3.05059 0.0455,-6.85003 0.91108,-9.9063 -0.001,-7.54759 10e-4,-15.09596 0,-22.64295 -2.26153,-3.73902 1.20341,-12.06743 -6.83311,-8.49112 z"
       id="path4056"
       inkscape:connector-curvature="0" />
    <path
       style="fill:none;stroke:#ffffff;stroke-width:3;stroke-linecap:butt;stroke-linejoin:miter;stroke-opacity:1;stroke-miterlimit:4;stroke-dasharray:none"
       d="m 267.54547,287.66193 c 3.72666,-0.98322 7.83309,-0.1054 11.00691,-0.96589 3.30348,-0.61818 5.75671,-2.61746 8.12062,-3.98343 2.23051,-2.08028 2.98251,-4.04115 4.09875,-6.43411 1.28113,-4.38965 1.77819,-9.26883 2.73251,-13.8581 0.003,-7.75276 -0.003,-15.50904 0,-23.2618 0.94974,-4.58735 0.22014,-2.80127 0.45541,-6.42949 0.0213,-2.97968 -1.87898,-5.06804 -1.58281,-8.33507 1.0419,-2.93351 1.78121,-3.57389 3.64333,-4.94932 2.7269,0.20205 6.27367,-0.47406 8.32721,0.49711 1.31118,2.13788 3.97934,5.00405 3.96906,8.41166 2.30461,4.18615 2.5014,10.14145 3.85991,15.2595 0.22763,4.57006 0.75522,9.04557 0.91084,13.64399 10e-4,5.68054 -0.68459,10.30042 0.91108,15.39074 1.57227,1.72051 8.54407,-0.2829 13.83938,0.16626 3.28617,0.30067 6.01012,-0.77867 9.29389,-0.49494 4.88867,0.003 9.77805,-0.004 14.66612,0 2.60312,1.17778 6.37179,0.0106 9.0968,0.65453 2.6472,0.45721 5.56565,0.5002 8.00269,1.15121 3.15216,1.70663 5.67718,2.49722 8.40387,4.13344 1.91556,2.79371 3.10512,5.1522 2.73251,9.54181 0.32396,3.43836 -0.83564,6.0702 -2.73251,7.78081 -2.9921,2.92145 -8.15573,1.25281 -11.65476,2.54722 -3.79115,2.16453 5.23832,0.34536 7.55601,1.90716 2.36355,0.89922 4.21905,2.04247 4.56193,5.1177 0.0605,2.5757 0.22239,6.51726 -1.21747,7.3948 -1.68574,1.60179 -5.91297,2.7342 -8.80948,3.82025 -1.92955,-0.21499 -9.02187,-1.64969 -6.47772,0.65631 2.79939,0.27245 8.03572,1.40419 8.75482,3.30316 2.21054,1.77971 2.51225,1.91702 2.27707,3.67399 -0.0583,2.44528 0.25761,5.04278 -0.45541,7.2145 -2.00229,1.04043 -2.22442,3.27297 -5.46499,3.46453 -1.72156,1.35472 -8.10381,-0.17788 -8.96391,0.97632 -0.58252,1.28433 6.48921,3.48663 6.53469,4.68777 2.08188,1.77865 3.02625,2.10901 2.80136,5.67683 -0.46578,3.42887 1.49468,1.91679 -3.48229,6.44957 -1.74187,2.04001 -3.65012,0.27526 -5.80939,1.79129 -2.3585,0.6215 -6.82699,1.17253 -10.92805,2.31767 -5.07956,0.83126 -6.99803,1.20005 -12.71408,1.19608 -3.44324,0.27045 -11.63876,-0.74391 -15.21139,-1.01307 -5.16734,-1.14588 -8.14126,-0.76055 -13.25287,-1.79025 -4.2816,-0.93194 -8.95061,-0.88453 -12.75169,-2.9696 -3.6218,-1.42858 -8.38084,-2.55724 -10.70229,-3.44111 -3.48139,-1.38144 -7.31056,-0.94836 -11.15774,-1.01328 -0.66835,-1.11399 -4.30809,-0.19 -5.80704,-0.49493"
       id="path4058"
       inkscape:connector-curvature="0"
       sodipodi:nodetypes="ccccccccccccccccccccccccccccccccccccccccccccc" />
    <path
       style="fill:none;stroke:#3c599b;stroke-width:2;stroke-linecap:butt;stroke-linejoin:miter;stroke-miterlimit:4;stroke-opacity:1;stroke-dasharray:none"
       d="m 258.3056,289.15874 c -1.59364,0.0325 -3.18282,0.1745 -4.77822,0.11782 -1.86178,0 -3.72357,0 -5.58535,0 -1.57469,0.28141 -3.18341,0.0252 -4.7727,0.11795 -1.58617,-0.0794 -3.4998,-0.29913 -4.02292,1.70518 -0.68962,1.31795 -0.70501,2.80731 -0.65835,4.26235 -10e-4,1.9384 0.0504,3.87698 -0.12423,5.80626 0.0525,1.69642 -0.48349,3.34384 -0.11875,5.03654 0.29538,1.39283 -0.28745,2.83005 0.0946,4.16503 0.67523,1.30645 2.162,1.77893 3.50112,1.54542 1.56618,0.0509 3.15096,-0.0752 4.70538,0.0602 1.36417,0.26333 1.1606,-0.13486 2.54093,-0.1445 1.74576,-0.39135 1.29024,-2.10436 1.3782,-3.3186 -0.29968,-1.66526 0.10396,-3.43172 0.0459,-5.10609 -0.51197,-1.17409 -1.38317,-0.0378 -2.39056,-0.32424 -0.90105,-0.18789 -0.0703,-1.71966 -0.54661,-2.49426 -0.40765,-1.09669 0.32234,-1.6388 1.3216,-1.2947 0.85726,0.13182 2.51895,0.47696 1.95757,-0.98697 -0.25132,-1.38355 -0.22428,-2.78828 -0.29745,-4.18807 -8.8e-4,-1.40416 0.90201,-3.05486 2.46385,-2.74314 1.59197,-0.15937 3.14935,-1.21238 4.77903,-0.65929 0.62511,0.92125 -0.27898,2.25065 0.0152,3.31462 -0.94236,0.62998 -2.25074,-0.22571 -3.25341,0.45061 -1.37954,0.65387 -1.40767,2.41837 -1.38515,3.76771 -0.26494,1.81392 2.22066,0.62407 3.25483,0.91693 1.0239,-0.29183 1.28595,0.42696 0.47284,1.07619 -0.62022,0.97244 -0.29854,3.168 -1.96876,2.83631 -0.94037,-0.16397 -2.39678,0.10646 -1.79484,1.44218 0.41417,2.0606 0.29345,4.17553 0.20214,6.26303 -0.47726,1.50307 1.2414,1.79701 2.28955,1.60227 1.34802,-0.20232 3.3061,0.30399 4.11043,-1.13327 0.73693,-2.31222 0.80372,-4.76905 1.07172,-7.16837 -0.0375,-1.9926 0.10995,-3.99732 -0.15631,-5.97496 -0.18343,-2.56345 -0.22715,-5.132 -0.18095,-7.70219 0.30734,-1.16668 -1.21873,-1.26878 -2.01958,-1.26735 l -0.15022,0.0197 -5.7e-4,-3.6e-4 z"
       id="path4072"
       inkscape:connector-curvature="0"
       sodipodi:nodetypes="cccccccccccccccccccccccccccccccccccccc" />
  </g>
</svg>
