<?xml version="1.0" encoding="UTF-8" standalone="no"?>
<!-- Created with Inkscape (http://www.inkscape.org/) -->

<svg
   xmlns:dc="http://purl.org/dc/elements/1.1/"
   xmlns:cc="http://creativecommons.org/ns#"
   xmlns:rdf="http://www.w3.org/1999/02/22-rdf-syntax-ns#"
   xmlns:svg="http://www.w3.org/2000/svg"
   xmlns="http://www.w3.org/2000/svg"
   xmlns:sodipodi="http://sodipodi.sourceforge.net/DTD/sodipodi-0.dtd"
   xmlns:inkscape="http://www.inkscape.org/namespaces/inkscape"
   width="168.90474"
   height="166.87531"
   id="svg3165"
   version="1.1"
   inkscape:version="0.48.4 r9939"
   sodipodi:docname="flickr.svg">
  <defs
     id="defs3167" />
  <sodipodi:namedview
     id="base"
     pagecolor="#ffffff"
     bordercolor="#666666"
     borderopacity="1.0"
     inkscape:pageopacity="0.0"
     inkscape:pageshadow="2"
     inkscape:zoom="22.4"
     inkscape:cx="96.918693"
     inkscape:cy="16.892587"
     inkscape:document-units="px"
     inkscape:current-layer="layer1"
     showgrid="false"
     fit-margin-top="0"
     fit-margin-left="0"
     fit-margin-right="0"
     fit-margin-bottom="0"
     inkscape:window-width="2560"
     inkscape:window-height="1017"
     inkscape:window-x="-8"
     inkscape:window-y="-8"
     inkscape:window-maximized="1" />
  <metadata
     id="metadata3170">
    <rdf:RDF>
      <cc:Work
         rdf:about="">
        <dc:format>image/svg+xml</dc:format>
        <dc:type
           rdf:resource="http://purl.org/dc/dcmitype/StillImage" />
        <dc:title />
      </cc:Work>
    </rdf:RDF>
  </metadata>
  <g
     inkscape:label="Layer 1"
     inkscape:groupmode="layer"
     id="layer1"
     transform="translate(-220.5699,-206.25762)">
    <path
       id="path3179"
       style="fill:none;stroke:#ffffff;stroke-width:3px;stroke-linecap:butt;stroke-linejoin:miter;stroke-opacity:1"
       d="m 251.52798,218.98633 c -0.45084,8.17885 -4.25704,18.43542 -4.04061,28.40075 0.67155,5.46695 -1.1933,9.88051 -1.01015,15.15229 -0.004,12.08276 0.005,24.16857 0,36.24901 -2.21703,6.42792 -2.05074,13.85076 -2.0203,21.21321 -0.9347,3.51044 -1.35475,7.91123 -0.92087,12.66389 -2.42399,1.66111 -0.48675,7.25118 -1.09944,10.56962 -3.19698,3.91122 -2.38077,8.33133 4.04061,5.05076 6.37479,-2.76809 14.09339,-2.28762 21.32968,-3.03046 6.69552,0 13.39105,0 20.08658,0 4.29735,-2.1395 10.11527,-0.49188 15.08733,-1.01015 10.7963,-0.009 21.59687,0.0133 32.38984,0 5.29015,-2.34631 11.66123,-2.05636 17.93637,-2.02031 6.13744,-0.005 12.31812,0.006 18.42912,0 0.83122,-7.26117 1.21897,-14.59417 1.01015,-22.09345 -0.73612,-9.20963 -1.61212,-19.39244 -3.03046,-29.12643 0.21389,-6.62711 -0.12162,-13.1263 -1.01015,-19.49079 0,-13.80542 0,-27.61084 0,-41.41626 2.14868,-3.15468 4.3202,-11.247 -3.14693,-9.09137 -9.38084,-0.24533 -19.01844,0.74464 -28.04621,-1.09367 -9.28844,1.08548 -16.82368,-2.36941 -25.90624,-1.93679 -5.74382,-0.41158 -11.29613,-1.43736 -17.40554,-1.01015 -8.16334,0 -16.32669,0 -24.49003,0 -5.35146,2.30733 -11.85465,2.05288 -18.18275,2.0203 z m -16.16244,11.11168 c -3.36131,7.58295 -2.01069,15.91619 -2.96008,23.92101 -0.93726,6.58346 -1.36577,12.44957 -2.09068,18.32398 -0.0169,5.55614 -1.61124,10.51482 -1.01015,16.34386 -1.73877,8.89928 -1.59255,19.00671 -3.03046,27.98638 0.28455,5.92431 -0.17742,11.72748 -1.01015,17.47048 -0.0504,7.75634 -1.38245,15.27145 -3.03046,22.22336 -0.36424,7.80929 -3.84119,15.53583 8.49559,12.12183 8.33471,-0.21615 16.61855,0.16263 24.84107,0.99641 7.61837,0.64426 11.90655,1.36075 20.55084,1.02389 7.8511,-0.2456 15.6312,0.96332 22.88409,2.02031 8.98766,-0.11749 18.10987,0.79371 26.66285,-2.10208 9.03147,-0.50585 17.96604,-2.14139 28.29976,-2.94868 7.12346,-0.0442 14.30686,0.40413 21.2132,-1.01016 4.51677,-0.89809 11.40597,2.0516 13.72777,-2.0203 0.0435,-7.06805 -0.0269,-14.14214 0,-21.2132 -2.13998,-9.51675 -3.09925,-19.26885 -3.03046,-29.29443 -2.87632,-5.89129 -1.73477,-13.58872 -2.94268,-19.95679 -2.08429,-9.62829 -0.69344,-20.00788 -1.09793,-30.00657 0.17161,-9.11317 -0.60215,-18.44952 1.01015,-27.2226 -0.66124,-7.41456 2.67683,-13.91707 2.02031,-21.32967 2.42668,-10.10945 -5.10163,-6.22482 -12.05688,-6.54023 -5.16358,0.76576 -10.39075,1.29609 -15.98102,1.01015 -17.92751,-0.005 -35.86164,0.006 -53.78446,0 -5.56903,-2.40473 -11.64382,-2.05889 -17.93637,-2.02031 -4.81835,-0.36081 -10.26909,0.94364 -14.44197,-1.08286 -11.75994,0.1491 -23.56698,0.038 -35.30188,0.0727 -0.50319,6.75033 -4.71822,15.32871 0,23.23351 z"
       inkscape:connector-curvature="0" />
    <path
       style="fill:none;stroke:#0063dc;stroke-width:3px;stroke-linecap:butt;stroke-linejoin:miter;stroke-opacity:1"
       d="m 282.00668,249.50504 c -8.64614,0.79789 -16.28868,5.08204 -20.93525,12.5 -5.34488,5.07767 -5.07778,13.4656 -4.28572,20.71428 1.04357,3.25667 3.58313,7.079 6.78572,8.92858 5.73387,3.66811 12.25112,6.82739 18.92857,6.78571 4.68663,0.77641 10.20716,0.58902 13.57143,-1.78571 4.43809,-1.79647 9.24805,-5.60738 11.40655,-10.13604 1.64039,-2.70385 1.80616,-8.69226 1.09345,-13.07825 -2.23411,-6.19772 -7.98048,-10.19136 -12.14286,-15.71429 -2.97558,-1.99688 -4.95775,-4.93578 -7.14286,-6.07142 -1.29112,-1.13081 -4.31249,-2.74155 -7.5,-2.14286"
       id="path3185"
       inkscape:connector-curvature="0" />
    <path
       style="fill:none;stroke:#ff0085;stroke-width:3px;stroke-linecap:butt;stroke-linejoin:miter;stroke-opacity:1"
       d="m 348.49363,251.95115 c -5.98525,0.19615 -12.7463,0.40056 -18.49363,1.8396 -4.72421,1.4544 -9.56922,3.89636 -11.78571,7.85715 -1.80614,1.89789 -3.15547,5.65035 -2.86186,9.28731 -0.87723,5.24535 -1.24211,10.84736 1.07614,15.35554 0.92715,3.64843 4.62528,7.74749 7.5,8.57143 5.35718,2.65468 11.42383,4.28095 17.5,3.21429 3.29504,-1.91676 7.45562,-4.24132 10.35714,-7.5 2.69641,-2.20974 4.82224,-6.26852 5.71429,-10.35715 1.68694,-6.07014 0.65974,-13.31304 -2.5,-18.57142 -1.34093,-3.64209 -3.53548,-7.05654 -6.7634,-9.81759"
       id="path3187"
       inkscape:connector-curvature="0" />
    <path
       style="fill:none;stroke:#ffffff;stroke-width:2px;stroke-linecap:round;stroke-linejoin:round;stroke-opacity:1"
       d="m 328.92858,363.79075 c 9.6e-4,-2.2619 0.3115,-4.61316 0.3125,-6.875 0.0347,-0.89595 0.1915,-2.00554 1.47321,-2.41071 1.1993,-0.33491 1.9946,0.47039 2.5,0.71429 m -9.28571,0.71428 c -0.58562,1.13296 -1.38363,1.83991 -2.53392,2.89106 -0.30954,0.65975 -2.57578,1.72113 -1.09684,2.01378 1.74601,0.70897 3.18526,1.36139 4.70218,2.23802 m -5.71428,-9.64286 c -0.004,2.97602 0.006,5.955 0,8.92857 -0.6171,0.95761 -0.39677,2.43936 -0.71429,3.57143 m -6.78571,-10 c -1.54762,0.004 -3.09642,-0.006 -4.64286,0 -1.70232,1.16947 -3.21511,2.67474 -3.21428,5 -0.48136,2.65999 2.62896,2.19224 3.74999,2.85714 1.00364,0.50369 2.64208,0.86708 4.27019,0.71429 0.89804,0 1.79607,0 2.6941,0 m -13.92857,-9.28571 c 0.002,1.66455 -0.003,3.34486 0,5 0.78548,0.28257 0.14957,1.96603 0.35714,2.83052 0,0.48507 0,0.97013 0,1.45519 m -9.64285,-14.64286 c -0.67525,2.54959 -0.22571,5.23928 -0.35715,7.85715 0.0978,1.97721 -0.56943,3.65902 -0.35714,5.68766 -0.0141,1.46973 0.32015,1.06116 1.23891,1.09805 1.5091,0.0949 2.72347,-0.28839 3.58253,-1.07143 0.7997,0.0562 -0.66735,-1.03472 0.5357,-0.71428 M 280,357.36218 c 1.78372,-0.002 3.58279,0.002 5.35715,0 -0.15794,-0.64904 0.35822,-0.27159 0.71428,-0.35714 m -6.78571,6.78571 c 0.62898,-1.83429 0.75985,-3.93903 0.71428,-6.05812 0,-2.02824 0,-4.05649 0,-6.08473 0.90538,-2.19207 4.55546,-2.29716 6.42858,-1.07143 1.05559,-0.31225 0.38261,0.65375 1.42857,0.35714"
       id="path3203"
       inkscape:connector-curvature="0"
       sodipodi:nodetypes="ccccccccccccccccccccccccccccccccccc" />
  </g>
</svg>
