<?xml version="1.0" encoding="UTF-8" standalone="no"?>
<!-- Created with Inkscape (http://www.inkscape.org/) -->

<svg
   xmlns:dc="http://purl.org/dc/elements/1.1/"
   xmlns:cc="http://creativecommons.org/ns#"
   xmlns:rdf="http://www.w3.org/1999/02/22-rdf-syntax-ns#"
   xmlns:svg="http://www.w3.org/2000/svg"
   xmlns="http://www.w3.org/2000/svg"
   xmlns:sodipodi="http://sodipodi.sourceforge.net/DTD/sodipodi-0.dtd"
   xmlns:inkscape="http://www.inkscape.org/namespaces/inkscape"
   width="168.90474"
   height="166.87531"
   id="svg3165"
   version="1.1"
   inkscape:version="0.48.4 r9939"
   sodipodi:docname="github.svg">
  <defs
     id="defs3167" />
  <sodipodi:namedview
     id="base"
     pagecolor="#ffffff"
     bordercolor="#666666"
     borderopacity="1.0"
     inkscape:pageopacity="0.0"
     inkscape:pageshadow="2"
     inkscape:zoom="3.959798"
     inkscape:cx="70.277314"
     inkscape:cy="92.525026"
     inkscape:document-units="px"
     inkscape:current-layer="layer1"
     showgrid="false"
     fit-margin-top="0"
     fit-margin-left="0"
     fit-margin-right="0"
     fit-margin-bottom="0"
     inkscape:window-width="1264"
     inkscape:window-height="1001"
     inkscape:window-x="0"
     inkscape:window-y="0"
     inkscape:window-maximized="0" />
  <metadata
     id="metadata3170">
    <rdf:RDF>
      <cc:Work
         rdf:about="">
        <dc:format>image/svg+xml</dc:format>
        <dc:type
           rdf:resource="http://purl.org/dc/dcmitype/StillImage" />
        <dc:title />
      </cc:Work>
    </rdf:RDF>
  </metadata>
  <g
     inkscape:label="Layer 1"
     inkscape:groupmode="layer"
     id="layer1"
     transform="translate(-220.5699,-206.25762)">
    <path
       style="fill:none;stroke:#ffffff;stroke-width:3.33066583;stroke-linecap:round;stroke-linejoin:miter;stroke-miterlimit:4;stroke-opacity:1;stroke-dasharray:none"
       d="m 295.98387,251.8315 c -6.46359,27.09023 18.26334,16.90055 11.77568,3.92522 -1.72087,-3.44173 -10.49101,-10.34862 -11.77568,-3.92522 z"
       id="path5186"
       inkscape:connector-curvature="0" />
    <path
       style="fill:none;stroke:#ffffff;stroke-width:3.33066583;stroke-linecap:round;stroke-linejoin:miter;stroke-miterlimit:4;stroke-opacity:1;stroke-dasharray:none"
       d="m 336.07726,249.86888 c -11.94797,25.8665 15.25518,20.53193 10.93456,7.57008 -0.57403,-1.72209 -0.72303,-4.92863 -1.96262,-6.16822 -1.0423,-1.04229 -8.28657,-4.82869 -8.97194,-1.40186 z"
       id="path5190"
       inkscape:connector-curvature="0" />
    <path
       sodipodi:type="arc"
       id="path5192"
       style="fill:#000000;stroke:#ffffff;stroke-width:3;stroke-linecap:round;stroke-miterlimit:4;stroke-opacity:1;stroke-dasharray:none"
       sodipodi:cx="305.4227"
       sodipodi:cy="311.00854"
       sodipodi:rx="1.5"
       sodipodi:ry="1.5"
       d="m 306.9227,311.00854 a 1.5,1.5 0 1 1 -3,0 1.5,1.5 0 1 1 3,0 z"
       transform="matrix(1.1102219,0,0,1.1102219,-19.551757,-79.157968)" />
    <path
       style="fill:none;stroke:#ffffff;stroke-width:3.33066583;stroke-linecap:round;stroke-linejoin:miter;stroke-miterlimit:4;stroke-opacity:1;stroke-dasharray:none"
       d="m 313.92775,272.57913 c 0.54081,5.70749 11.61821,6.39488 13.17756,-1.40187"
       id="path5194"
       inkscape:connector-curvature="0"
       sodipodi:nodetypes="cc" />
    <path
       id="path5204"
       style="fill:none;stroke:#ffffff;stroke-width:3.33066583;stroke-linecap:round;stroke-linejoin:miter;stroke-miterlimit:4;stroke-opacity:1;stroke-dasharray:none"
       d="m 288.69416,304.82205 c -6.77697,3.01658 -14.86074,3.64486 -23.27099,3.64486 -18.37063,0 -13.17071,-26.91584 -33.08406,-26.91584 -1.11073,0 -2.99082,3.27069 -2.24299,4.76635 1.5683,3.13658 12.05606,5.91093 12.05606,15.14016 0,1.82253 2.20095,4.72431 3.36448,5.88784 1.97048,1.97048 2.22292,5.45725 5.32709,7.00933 10.09632,5.04816 22.18275,7.61127 32.52331,5.88784 m 65.60737,-31.12144 c 7.10578,-0.26328 9.09442,5.13378 10.93456,10.65419 3.44433,10.33298 -6.0789,34.66456 -1.68224,43.45787 3.07248,6.14496 5.08497,6.7672 9.81307,11.49531 0.70093,0.70094 4.62616,0.14018 5.32709,0.84112 0.17518,0.17517 -0.82167,4.46653 -1.12149,4.76634 -1.37651,1.37651 -3.79079,2.23984 -5.60746,2.52337 -4.65115,0.72591 -5.66057,-1.68224 -9.25233,-1.68224 -7.64362,0 -6.38401,-36.88012 -10.09343,-44.299 -0.3747,-0.74939 -5.45394,-14.73296 -8.69159,-11.4953 -1.08371,1.08372 -2.80373,38.47313 -2.80373,41.77563 0,1.87431 -1.2343,6.33578 0.28038,7.85045 0.84252,0.84253 6.79938,4.41554 4.20559,7.00933 -1.12735,1.12737 -10.74338,5.2379 -13.73829,2.243 -8.8963,-8.89631 5.4351,-28.83483 1.1215,-41.77564 -1.58766,-4.76297 -2.61331,-22.33992 -8.69158,-16.26166 -0.79349,0.7935 -2.24299,3.33915 -2.24299,6.16822 m -0.28037,-0.28037 c 0,7.85045 0,15.7009 0,23.55136 0,10.61597 -0.22316,19.56892 -7.00933,26.35509 -1.52994,1.52994 -4.93742,1.29257 -6.44859,2.80373 -0.73454,0.73455 -6.30325,0.98647 -7.28971,0 -2.56858,-2.56857 6.72558,-10.36705 7.57008,-12.05604 4.81109,-9.62219 7.28971,-19.37362 7.28971,-31.40183 0,-0.85029 0.62905,-9.49853 0,-9.81306 -0.86832,-0.43416 -4.32259,0.64022 -5.32709,0.84112 -17.26569,3.45314 -15.0874,24.00657 -20.46726,34.7663 -2.29779,4.59557 -5.66606,7.3483 -8.97195,10.65418 -2.53703,2.53704 -18.78501,3.60014 -18.78501,-0.28037 0,-0.0784 6.73902,-2.53343 7.2897,-3.08411 6.11373,-6.11372 11.98874,-9.61112 15.14017,-19.06538 5.38644,-16.15933 9.9633,-40.09741 21.86912,-44.85974 m 46.82235,-7.28971 c -9.60355,1.20918 -16.83971,2.51471 -30.5607,1.40187 -7.68893,-0.6236 -27.45675,0.57722 -33.92517,-5.32709 -2.61384,-2.38589 -6.40783,-9.66043 -6.44859,-12.05606 -0.06,-3.52493 1.73872,-7.96343 2.52335,-9.53269 2.19198,-4.38396 3.03336,-6.11748 6.44859,-9.5327 6.57757,-6.57757 57.02552,-8.21616 66.72887,-3.36449 7.43513,3.71758 6.72257,3.3517 10.09344,10.09345 4.87509,9.75018 -7.54313,28.31771 -14.85979,28.31771 z m -61.12139,-54.39243 c 6.9586,-8.35897 29.6,-10.81253 42.89712,-10.09345 5.65875,0.30601 12.302,4.74914 15.14016,6.16822 1.84095,0.92048 21.62547,-18.18755 26.91585,-12.89718 2.27672,2.27672 2.5624,18.18524 0,20.74763 -0.30655,0.30655 -3.82546,6.08737 -3.64485,6.44859 1.32266,2.64532 6.56321,2.02613 10.09344,12.61681 2.49788,7.49364 -0.64564,16.34655 -5.88784,21.58875 -3.47901,3.479 -5.74218,8.31408 -9.25233,10.65418 -17.92601,11.95067 -70.28012,6.85362 -89.99985,0.28037 -28.80328,-9.60109 -2.70787,-36.25679 -3.92523,-38.69152 -1.6902,-3.38043 -4.89188,-2.16233 -8.97195,-13.17755 -1.43462,-3.87312 -1.94505,-15.84988 0.56075,-17.10278 7.30356,-3.65178 21.00611,9.40304 26.07473,13.45793 z"
       inkscape:connector-curvature="0"
       sodipodi:nodetypes="cssssssccssscsssssssssssccsssssssssssssccsssssssccssscssssssssc" />
    <path
       sodipodi:type="arc"
       id="path5206"
       style="fill:#000000;stroke:#d200f7;stroke-width:2;stroke-linecap:round;stroke-miterlimit:4;stroke-opacity:1;stroke-dasharray:none"
       sodipodi:cx="234.4595"
       sodipodi:cy="293.83594"
       sodipodi:rx="1.5"
       sodipodi:ry="1.5"
       d="m 235.9595,293.83594 a 1.5,1.5 0 1 1 -3,0 1.5,1.5 0 1 1 3,0 z"
       transform="matrix(1.1102219,0,0,1.1102219,-22.916238,-40.466443)" />
    <path
       sodipodi:type="arc"
       id="path5208"
       style="fill:#000000;stroke:#d200f7;stroke-width:2;stroke-linecap:round;stroke-miterlimit:4;stroke-opacity:1;stroke-dasharray:none"
       sodipodi:cx="238.75266"
       sodipodi:cy="297.37149"
       sodipodi:rx="1.5"
       sodipodi:ry="1.5"
       d="m 240.25266,297.37149 a 1.5,1.5 0 1 1 -3,0 1.5,1.5 0 1 1 3,0 z"
       transform="matrix(1.1102219,0,0,1.1102219,-22.916238,-40.466443)" />
    <path
       sodipodi:type="arc"
       id="path5210"
       style="fill:#000000;stroke:#d200f7;stroke-width:2;stroke-linecap:round;stroke-miterlimit:4;stroke-opacity:1;stroke-dasharray:none"
       sodipodi:cx="242.28818"
       sodipodi:cy="302.6748"
       sodipodi:rx="1.5"
       sodipodi:ry="1.5"
       d="m 243.78818,302.6748 a 1.5,1.5 0 1 1 -3,0 1.5,1.5 0 1 1 3,0 z"
       transform="matrix(1.1102219,0,0,1.1102219,-22.916238,-40.466443)" />
    <path
       sodipodi:type="arc"
       id="path5212"
       style="fill:#000000;stroke:#d200f7;stroke-width:2;stroke-linecap:round;stroke-miterlimit:4;stroke-opacity:1;stroke-dasharray:none"
       sodipodi:cx="245.0661"
       sodipodi:cy="309.24078"
       sodipodi:rx="1.5"
       sodipodi:ry="1.5"
       d="m 246.5661,309.24078 a 1.5,1.5 0 1 1 -3,0 1.5,1.5 0 1 1 3,0 z"
       transform="matrix(1.1102219,0,0,1.1102219,-22.916238,-40.466443)" />
    <path
       sodipodi:type="arc"
       id="path5214"
       style="fill:#000000;stroke:#d200f7;stroke-width:2;stroke-linecap:round;stroke-miterlimit:4;stroke-opacity:1;stroke-dasharray:none"
       sodipodi:cx="250.3694"
       sodipodi:cy="313.2814"
       sodipodi:rx="1.5"
       sodipodi:ry="1.5"
       d="m 251.8694,313.2814 a 1.5,1.5 0 1 1 -3,0 1.5,1.5 0 1 1 3,0 z"
       transform="matrix(1.1102219,0,0,1.1102219,-22.916238,-40.466443)" />
    <path
       sodipodi:type="arc"
       id="path5216"
       style="fill:#000000;stroke:#d200f7;stroke-width:2;stroke-linecap:round;stroke-miterlimit:4;stroke-opacity:1;stroke-dasharray:none"
       sodipodi:cx="258.70316"
       sodipodi:cy="316.56439"
       sodipodi:rx="1.5"
       sodipodi:ry="1.5"
       d="m 260.20316,316.56439 a 1.5,1.5 0 1 1 -3,0 1.5,1.5 0 1 1 3,0 z"
       transform="matrix(1.1102219,0,0,1.1102219,-22.916238,-40.466443)" />
    <path
       sodipodi:type="arc"
       id="path5218"
       style="fill:#000000;stroke:#d200f7;stroke-width:2;stroke-linecap:round;stroke-miterlimit:4;stroke-opacity:1;stroke-dasharray:none"
       sodipodi:cx="267.03693"
       sodipodi:cy="316.56439"
       sodipodi:rx="1.5"
       sodipodi:ry="1.5"
       d="m 268.53693,316.56439 a 1.5,1.5 0 1 1 -3,0 1.5,1.5 0 1 1 3,0 z"
       transform="matrix(1.1102219,0,0,1.1102219,-22.916238,-40.466443)" />
    <path
       sodipodi:type="arc"
       id="path5220"
       style="fill:#000000;stroke:#d200f7;stroke-width:2;stroke-linecap:round;stroke-miterlimit:4;stroke-opacity:1;stroke-dasharray:none"
       sodipodi:cx="274.10797"
       sodipodi:cy="315.55423"
       sodipodi:rx="1.5"
       sodipodi:ry="1.5"
       d="m 275.60797,315.55423 a 1.5,1.5 0 1 1 -3,0 1.5,1.5 0 1 1 3,0 z"
       transform="matrix(1.1102219,0,0,1.1102219,-22.916238,-40.466443)" />
    <path
       sodipodi:type="arc"
       id="path5222"
       style="fill:#000000;stroke:#ffffff;stroke-width:3;stroke-linecap:round;stroke-miterlimit:4;stroke-opacity:1;stroke-dasharray:none"
       sodipodi:cx="289.00772"
       sodipodi:cy="267.06693"
       sodipodi:rx="1.5"
       sodipodi:ry="1.5"
       d="m 290.50772,267.06693 a 1.5,1.5 0 1 1 -3,0 1.5,1.5 0 1 1 3,0 z"
       transform="matrix(1.1102219,0,0,1.1102219,-22.916238,-40.466443)" />
    <path
       sodipodi:type="arc"
       id="path5224"
       style="fill:#000000;stroke:#ffffff;stroke-width:3;stroke-linecap:round;stroke-miterlimit:4;stroke-opacity:1;stroke-dasharray:none"
       sodipodi:cx="324.11053"
       sodipodi:cy="266.3093"
       sodipodi:rx="1.5"
       sodipodi:ry="1.5"
       d="m 325.61053,266.3093 a 1.5,1.5 0 1 1 -3,0 1.5,1.5 0 1 1 3,0 z"
       transform="matrix(1.1102219,0,0,1.1102219,-22.916238,-40.466443)" />
  </g>
</svg>
