<?xml version="1.0" encoding="UTF-8" standalone="no"?>
<!-- Created with Inkscape (http://www.inkscape.org/) -->

<svg
   xmlns:dc="http://purl.org/dc/elements/1.1/"
   xmlns:cc="http://creativecommons.org/ns#"
   xmlns:rdf="http://www.w3.org/1999/02/22-rdf-syntax-ns#"
   xmlns:svg="http://www.w3.org/2000/svg"
   xmlns="http://www.w3.org/2000/svg"
   xmlns:sodipodi="http://sodipodi.sourceforge.net/DTD/sodipodi-0.dtd"
   xmlns:inkscape="http://www.inkscape.org/namespaces/inkscape"
   width="2012"
   height="2219"
   id="svg3128"
   version="1.1"
   inkscape:version="0.48.4 r9939"
   sodipodi:docname="New document 10">
  <defs
     id="defs3130" />
  <sodipodi:namedview
     id="base"
     pagecolor="#ffffff"
     bordercolor="#666666"
     borderopacity="1.0"
     inkscape:pageopacity="0.0"
     inkscape:pageshadow="2"
     inkscape:zoom="0.35"
     inkscape:cx="894.8851"
     inkscape:cy="1163.0764"
     inkscape:document-units="px"
     inkscape:current-layer="layer1"
     showgrid="false"
     fit-margin-top="0"
     fit-margin-left="0"
     fit-margin-right="0"
     fit-margin-bottom="0"
     inkscape:window-width="2560"
     inkscape:window-height="1017"
     inkscape:window-x="-8"
     inkscape:window-y="-8"
     inkscape:window-maximized="1" />
  <metadata
     id="metadata3133">
    <rdf:RDF>
      <cc:Work
         rdf:about="">
        <dc:format>image/svg+xml</dc:format>
        <dc:type
           rdf:resource="http://purl.org/dc/dcmitype/StillImage" />
        <dc:title></dc:title>
      </cc:Work>
    </rdf:RDF>
  </metadata>
  <g
     inkscape:label="Layer 1"
     inkscape:groupmode="layer"
     id="layer1"
     transform="translate(631,577.13782)">
    <path
       style="fill:#ffffff"
       d="M 63.65519,1554.4267 C 56.50691,1551.835 52,1545.6841 52,1538.52 c 0,-1.8735 -0.675,-5.3195 -1.5,-7.6578 -0.825,-2.3383 -1.5,-7.0649 -1.5,-10.5036 0,-3.4387 -0.675,-7.8677 -1.5,-9.8422 -1.10853,-2.653 -1.50393,-7.5783 -1.51506,-18.8721 -0.0106,-10.7558 -0.44187,-16.4668 -1.4561,-19.2821 -0.84818,-2.3543 -1.45911,-7.8327 -1.48495,-13.3157 -0.0261,-5.541 -0.5504,-10.2009 -1.29389,-11.5 -0.93263,-1.6297 -1.39051,-14.879 -1.80344,-52.1843 -0.3735,-33.7442 -0.9347,-51.3005 -1.72614,-54 -0.82538,-2.8153 -1.17977,-18.5866 -1.19656,-53.25 L 37,1238.8622 l -6.55375,0 c -4.04767,0 -10.97194,-1.1472 -18.10796,-3 -6.35482,-1.65 -14.09314,-3.0198 -17.19626,-3.0439 -3.10311,-0.024 -7.44203,-0.6924 -9.64203,-1.4849 -2.2,-0.7926 -6.82695,-1.4479 -10.28212,-1.4561 -3.45516,-0.01 -7.89762,-0.6901 -9.87212,-1.5151 -1.97451,-0.825 -5.98076,-1.5 -8.90278,-1.5 -2.92203,0 -6.57958,-0.5116 -8.12788,-1.1369 -3.4542,-1.3951 -9.6439,-2.6768 -18.63964,-3.8597 -3.75349,-0.4936 -8.25349,-1.3317 -10,-1.8625 -1.7465,-0.5307 -6.6219,-1.1918 -10.83422,-1.4689 -4.21231,-0.2772 -8.57023,-0.9918 -9.68426,-1.588 -1.11402,-0.5962 -3.97055,-1.084 -6.34784,-1.084 -2.37729,0 -5.89437,-0.4761 -7.81574,-1.058 -1.92137,-0.5819 -6.3791,-1.4904 -9.90606,-2.0189 -7.91772,-1.1866 -11.97973,-3.6077 -14.96531,-8.9198 -1.97665,-3.5169 -2.20241,-4.9011 -1.59823,-9.7994 0.38695,-3.1371 0.88363,-95.4789 1.10373,-205.20392 0.35245,-175.7091 0.21964,-200.2231 -1.11368,-205.5639 -1.29873,-5.2022 -1.51385,-19.5901 -1.51385,-101.25 0,-80.1936 -0.21703,-95.1861 -1.37788,-95.1861 -0.75783,0 -2.99337,0.675 -4.96788,1.5 -2.86377,1.1966 -8.60893,1.5 -28.40033,1.5 l -24.81033,0 -7.47179,-3.6323 c -6.92413,-3.3662 -9.85462,-4.2807 -25.00187,-7.803 -3.04155,-0.7072 -7.04706,-2.0703 -8.90113,-3.0291 -3.97845,-2.0574 -13.12707,-5.0615 -18.06879,-5.9333 -1.925,-0.3396 -9.75267,-3.7641 -17.39482,-7.6099 -7.64216,-3.8458 -14.61716,-6.9941 -15.5,-6.9961 -2.16975,-0.01 -8.13902,-3.7273 -10.63702,-6.6329 -1.11751,-1.2999 -2.5974,-2.3634 -3.28865,-2.3634 -0.69124,0 -8.48135,-7.0875 -17.31134,-15.75 l -16.05452,-15.75 -6.48161,-13 c -7.84385,-15.7322 -8.58709,-17.8296 -13.33122,-37.6207 -0.74277,-3.0986 -1.00768,-17.7568 -0.80422,-44.49996 l 0.3034,-39.87934 2.60825,-5 c 1.43454,-2.75 2.91979,-7.025 3.30054,-9.5 0.38076,-2.475 1.27973,-5.4 1.9977,-6.5 1.62777,-2.49388 6.16413,-15.80483 6.98638,-20.5 0.33712,-1.925 1.60504,-5.075 2.81759,-7 2.7738,-4.40358 4.55141,-9.28822 5.38077,-14.78565 0.3556,-2.3571 1.64185,-5.7523 2.85833,-7.54489 1.21649,-1.79259 2.72151,-4.72145 3.34451,-6.50858 0.623,-1.78713 2.06075,-4.55262 3.195,-6.14554 1.13426,-1.59291 2.90416,-6.1855 3.93311,-10.20577 2.53123,-9.88984 4.9587,-17.15304 7.206,-21.56099 1.0295,-2.0193 1.87182,-4.46962 1.87182,-5.44514 0,-0.97552 1.35,-5.83707 3,-10.80344 1.65,-4.96637 3.0044,-10.03557 3.00977,-11.26488 0.005,-1.22932 1.05604,-4.48512 2.33482,-7.23512 1.28436,-2.76199 2.60572,-8.01884 2.95209,-11.74447 0.34487,-3.70946 1.0942,-7.61738 1.66518,-8.68426 0.57098,-1.06688 1.03814,-4.34983 1.03814,-7.29543 0,-2.9456 0.675,-7.94714 1.5,-11.11453 1.16675,-4.47947 1.49666,-12.13528 1.48494,-34.4601 -0.0158,-30.0886 -0.24815,-32.00679 -4.74398,-39.16083 -1.19577,-1.90279 -2.46613,-4.82779 -2.82302,-6.5 -0.35689,-1.67221 -0.96814,-3.49038 -1.35833,-4.04038 -0.39019,-0.55 -1.24651,-2.87983 -1.90292,-5.1774 -0.65641,-2.29756 -2.79249,-6.0913 -4.74685,-8.43051 -1.95435,-2.33921 -4.42255,-5.95684 -5.48487,-8.03917 -1.06233,-2.08233 -2.82995,-4.26688 -3.92806,-4.85457 -1.0981,-0.58769 -3.98874,-5.21524 -6.42365,-10.28344 -2.4349,-5.0682 -5.85016,-10.56491 -7.58945,-12.21491 -1.7393,-1.65 -3.85025,-4.31776 -4.691,-5.92836 -0.84075,-1.6106 -2.97271,-4.3106 -4.7377,-6 -1.76499,-1.6894 -4.3372,-4.75363 -5.71602,-6.80939 -1.37883,-2.05576 -4.04419,-4.77255 -5.92302,-6.03731 -1.87884,-1.26476 -4.31607,-3.82365 -5.41607,-5.68642 -1.1,-1.86278 -3.575,-4.94927 -5.5,-6.85887 -1.925,-1.90961 -4.175,-4.4608 -5,-5.66932 -0.825,-1.20852 -5.775,-6.14997 -11,-10.981 -5.225,-4.83104 -11.075,-11.10565 -13,-13.9436 -1.925,-2.83794 -7.55,-9.23234 -12.5,-14.20977 -4.95,-4.97743 -10.74811,-11.73468 -12.8847,-15.0161 -2.13658,-3.28143 -5.41326,-6.96823 -7.28152,-8.1929 -1.86825,-1.22467 -4.90756,-4.57573 -6.75402,-7.44681 -1.84646,-2.87108 -7.01609,-8.93207 -11.48807,-13.46885 -4.47198,-4.53679 -8.90956,-9.52672 -9.86128,-11.08873 -4.17753,-6.85633 -7.75372,-11.92595 -10.87429,-15.41545 -1.84587,-2.06409 -3.35612,-4.21164 -3.35612,-4.77234 0,-0.56071 -1.74573,-2.92191 -3.87941,-5.24712 -2.13368,-2.32521 -6.91007,-10.28629 -10.6142,-17.69127 -5.528,-11.05111 -6.81402,-14.54526 -7.17697,-19.5 -0.2432,-3.32002 -1.11464,-8.33831 -1.93653,-11.15176 -1.24933,-4.27664 -1.43482,-12.06488 -1.1313,-47.5 l 0.36303,-42.38463 2.68333,-7 c 1.47584,-3.85 2.6853,-8.41082 2.68769,-10.13517 0.002,-1.72434 0.70922,-5.54934 1.57071,-8.5 0.8615,-2.95065 2.4923,-8.51483 3.62402,-12.36483 1.13171,-3.85 3.05364,-8.575 4.27095,-10.5 1.21731,-1.925 2.51137,-4.70282 2.87569,-6.17293 0.36432,-1.47011 1.72219,-3.94511 3.01749,-5.5 1.29529,-1.55489 2.98293,-4.01348 3.75029,-5.46353 0.76737,-1.45005 3.53271,-4.97236 6.14521,-7.82734 2.6125,-2.85498 4.75,-5.66911 4.75,-6.25361 0,-0.58451 4.3875,-5.54181 9.75,-11.01622 11.5814,-11.8231 18.22764,-15.76637 26.5736,-15.76637 9.45514,0 16.6764,7.0063 16.6764,16.18 0,6.76372 -1.95621,10.80067 -7.45793,15.39066 -2.59041,2.16114 -5.31845,4.60434 -6.06231,5.42934 -0.74385,0.825 -5.14127,5.55 -9.77204,10.5 -6.46427,6.9099 -9.60313,11.32233 -13.51595,19 -2.803,5.5 -5.59855,11.8 -6.21233,14 -1.31827,4.72513 -3.64451,14.20791 -5.01426,20.44033 -0.53674,2.44219 -2.09848,7.69277 -3.47053,11.66798 -2.45348,7.10836 -2.49465,7.74673 -2.49465,38.68394 0,25.40495 0.28856,32.27416 1.5,35.70775 0.825,2.3383 1.5,6.45486 1.5,9.14792 0,3.72859 0.97821,6.85893 4.10126,13.12428 2.25569,4.52529 5.36415,9.5778 6.9077,11.2278 1.54355,1.65 4.13803,5.475 5.76553,8.5 1.6275,3.025 4.84771,7.525 7.15603,10 2.30832,2.475 5.033,6.075 6.05484,8 1.02185,1.925 5.50667,7.1 9.96628,11.5 4.45961,4.4 8.94729,9.575 9.97261,11.5 1.02532,1.925 3.65508,4.93812 5.84392,6.69581 2.18883,1.7577 6.08668,6.39401 8.66188,10.30292 2.5752,3.90891 5.32282,7.35294 6.10583,7.65341 0.78301,0.30047 2.3551,2.05342 3.49353,3.89545 1.13844,1.84204 2.9789,3.63766 4.08992,3.99028 1.11101,0.35262 3.5179,2.96336 5.34865,5.80163 1.83075,2.83828 11.69939,13.55575 21.93033,23.81662 C -346.37076,-7.72083 -338,1.17058 -338,1.77699 c 0,0.96631 4.45289,6.32602 13.09076,15.75666 1.42492,1.55569 3.81443,3.65742 5.31004,4.6705 1.4956,1.01308 3.47976,3.47541 4.40924,5.47184 0.92948,1.99643 3.12498,4.90254 4.8789,6.45802 1.75392,1.55548 3.73784,4.49315 4.4087,6.52815 1.27716,3.87418 4.81913,9.2109 11.19149,16.86237 2.08402,2.50234 5.14722,7.08949 6.80712,10.19368 1.6599,3.10418 4.50959,8.00249 6.33263,10.88512 1.82305,2.88263 4.34671,8.50763 5.60814,12.5 1.26143,3.99237 3.12133,8.45639 4.13311,9.92005 1.01178,1.46366 2.95801,5.06366 4.32496,8 l 2.48537,5.3388 0.01,40.62427 c 0.008,31.49364 -0.29296,41.49538 -1.33713,44.5 -0.74079,2.13165 -1.15889,5.45073 -0.92911,7.37573 0.22978,1.925 -0.099,5.525 -0.73064,8 -0.63163,2.475 -1.51622,6.79987 -1.96575,9.61083 -0.44952,2.81096 -1.95179,8.88596 -3.33836,13.5 -1.38657,4.61404 -3.25712,11.31417 -4.15678,14.88917 -0.89965,3.575 -2.99626,10.55 -4.65914,15.5 -3.94993,11.75807 -5.23883,15.70893 -9.62387,29.5 -2.01111,6.325 -4.89503,13.3 -6.40871,15.5 -1.51367,2.2 -4.60049,9.58981 -6.8596,16.42179 -2.2591,6.83199 -4.81649,13.79292 -5.68309,15.46874 -0.8666,1.67582 -2.86459,7.02358 -4.43997,11.88392 -1.57539,4.86033 -3.53652,10.13683 -4.35808,11.72555 -0.82156,1.58872 -2.88103,7.07615 -4.5766,12.19429 l -3.08286,9.30571 -0.0232,31.17888 c -0.0128,17.14842 0.35205,31.77342 0.81075,32.50002 0.4587,0.7266 1.10407,4.5529 1.43417,8.5028 0.51026,6.1059 1.14974,7.9797 4.26897,12.5087 2.01785,2.9298 3.66881,6.0061 3.66881,6.8361 0,0.8301 1.125,3.1648 2.5,5.1883 1.375,2.0235 2.5,3.9811 2.5,4.3501 0,0.6497 4.65455,6.5917 7.23281,9.2335 3.78786,3.8812 14.94948,13.2016 15.80946,13.2016 0.55133,0 2.90486,1.7441 5.23007,3.8758 2.32521,2.1317 7.60266,5.5632 11.72766,7.6255 4.125,2.0624 8.625,4.4971 10,5.4107 2.90751,1.9317 7.86026,3.617 13.44477,4.575 2.16963,0.3722 5.99463,1.7123 8.5,2.9781 2.50538,1.2658 10.91093,3.8947 18.67902,5.842 8.39637,2.1049 17.04138,5.0099 21.31857,7.1639 l 7.19478,3.6232 15.68143,-0.3976 c 17.66676,-0.4479 26.69956,-2.1048 32.93502,-6.0411 l 4.24641,-2.6806 0,-58.0446 c 0,-40.6811 0.34711,-59.4485 1.16035,-62.7375 1.00433,-4.06181 2.75365,-6.27269 13.01002,-16.4428 6.51732,-6.4625 12.29907,-11.75 12.84834,-11.75 0.54927,0 3.69085,-2.475 6.98129,-5.5 3.29044,-3.025 6.46347,-5.5 7.05117,-5.5 0.5877,0 3.40411,-2.18843 6.25869,-4.86318 4.86123,-4.55499 9.22507,-7.75999 17.29447,-12.70185 1.85455,-1.13576 6.92676,-5.52441 11.27158,-9.75255 5.08123,-4.94478 8.98534,-7.90467 10.94262,-8.29613 1.67363,-0.33472 3.94745,-1.45125 5.05294,-2.48117 1.10549,-1.02993 3.7667,-3.11741 5.91378,-4.63886 8.8096,-6.24256 13.11426,-9.9113 14.66917,-12.50212 0.90307,-1.50472 3.30776,-3.97949 5.34376,-5.49947 2.036,-1.51999 4.35618,-3.66386 5.15595,-4.76414 0.79978,-1.10029 3.53648,-4.02553 6.08157,-6.50053 2.54508,-2.475 5.89979,-6.525 7.4549,-9 1.5551,-2.475 3.6956,-5.11582 4.75666,-5.8685 1.06105,-0.75267 3.41468,-3.69069 5.23028,-6.52894 1.8156,-2.83824 7.55078,-9.47275 12.74485,-14.74337 5.19406,-5.27061 10.4287,-11.1766 11.63252,-13.12442 1.20382,-1.94783 4.09144,-5.14598 6.41693,-7.10701 5.60462,-4.72624 7.79887,-6.9127 10.36928,-10.33249 1.17761,-1.56676 4.77761,-4.17784 8,-5.80242 10.6188,-5.35351 11.16245,-6.45841 6.02243,-12.23997 -3.5292,-3.96968 -10.21537,-13.31176 -15.09095,-21.08542 -1.61006,-2.5671 -5.09756,-7.891 -7.75,-11.83089 -2.65243,-3.93988 -4.8226,-7.5917 -4.8226,-8.11514 0,-0.52344 -0.93796,-2.14413 -2.08435,-3.60153 -1.932,-2.45614 -8.13855,-13.11787 -11.71247,-20.1199 -0.84218,-1.65 -2.80838,-4.47925 -4.36934,-6.28723 -1.56096,-1.80797 -3.50819,-4.89094 -4.32717,-6.85104 -0.81898,-1.9601 -3.40552,-6.16187 -5.74786,-9.33727 -2.34235,-3.17539 -5.04829,-7.06742 -6.01321,-8.64895 -0.96493,-1.58153 -4.00023,-6.39506 -6.74512,-10.69672 C -12.20726,114.37963 -18,101.23954 -18,97.58779 c 0,-1.4907 -1.19703,-0.28109 -4.01788,4.0601 -7.65372,11.77881 -13.77719,16.21429 -22.3849,16.21429 -5.34443,0 -9.26464,-1.35954 -12.44684,-4.31661 -4.02339,-3.73875 -8.81057,-11.89566 -11.10537,-18.92253 -1.21046,-3.70652 -2.62698,-7.00251 -3.14782,-7.3244 -1.25177,-0.77364 -6.95889,-12.19997 -10.38561,-20.79322 -3.24265,-8.13167 -6.48322,-20.81665 -6.49977,-25.4429 -0.006,-1.81481 -0.62042,-4.51481 -1.36428,-6 -0.74386,-1.48519 -2.09596,-5.72616 -3.00466,-9.42438 -0.9087,-3.69823 -3.19786,-9.54823 -5.08702,-13 -1.88917,-3.45178 -4.31962,-9.48872 -5.40101,-13.41543 -1.08139,-3.92671 -2.38542,-7.97671 -2.89784,-9 -0.51243,-1.02329 -1.69514,-4.78553 -2.62826,-8.36053 -1.5278,-5.85339 -1.6467,-11.97128 -1.1952,-61.5 0.89616,-98.30851 2.34296,-140.09328 4.99958,-144.39178 0.37109,-0.60044 2.41921,-7.73292 4.55138,-15.84996 8.23447,-31.34807 19.08358,-55.6619 35.06265,-78.57855 2.99907,-4.30115 6.86367,-10.04476 8.58801,-12.76358 1.72434,-2.71881 4.87434,-6.89241 7,-9.27467 2.12566,-2.38226 6.78238,-8.33865 10.34827,-13.23642 3.56588,-4.89777 9.64088,-12.33323 13.5,-16.52325 17.69752,-19.21499 24.2775,-26.63735 26.49044,-29.88179 3.89341,-5.70824 16.10799,-18.501 22.91527,-24 2.38299,-1.925 6.20979,-4.625 8.50401,-6 2.29423,-1.375 5.73181,-3.66385 7.63908,-5.08633 1.90727,-1.42248 5.56579,-3.78082 8.13004,-5.24074 2.56425,-1.45993 6.12558,-3.89608 7.91407,-5.41367 7.89855,-6.70219 35.07409,-19.88207 45.92366,-22.27254 3.025,-0.6665 6.4,-1.74332 7.5,-2.39294 1.1,-0.64963 5.375,-2.4399 9.5,-3.97839 4.125,-1.5385 10.875,-4.08159 15,-5.65132 7.29656,-2.77663 13.55952,-4.52467 25.14513,-7.0182 3.16431,-0.68105 9.21246,-1.00847 13.76264,-0.74507 7.1377,0.4132 8.56863,0.83031 11.85487,3.45566 2.05555,1.64216 4.45212,4.38407 5.32571,6.09312 l 1.58835,3.10738 10.91165,-11.01236 c 11.62616,-11.73347 19.10451,-17.45391 28.24328,-21.60427 3.1176,-1.41585 7.01837,-3.58517 8.66837,-4.8207 1.65,-1.23554 5.54799,-2.90736 8.6622,-3.71517 3.11421,-0.80781 7.16421,-2.60376 9,-3.991 1.83579,-1.38725 7.8378,-3.86137 13.3378,-5.49806 5.5,-1.63669 12.57626,-3.92971 15.72502,-5.0956 6.09685,-2.25748 17.64506,-2.87784 23.31284,-1.25234 2.12876,0.61052 5.08881,0.32211 9.9934,-0.97369 13.31771,-3.51857 40.87867,-1.75516 53.46874,3.42104 1.925,0.79143 5.7431,1.76278 8.4847,2.15855 2.7416,0.39577 7.7231,1.96124 11.0701,3.47881 3.3469,1.51758 8.9788,3.26331 12.5153,3.87941 14.282,2.48813 16.6104,2.9858 20.9299,4.47356 8.4849,2.92246 16.1569,4.84565 21.135,5.29803 2.74,0.249 7.7681,1.08759 11.1735,1.86354 3.4053,0.77595 8.2165,1.67894 10.6915,2.00665 2.475,0.3277 7.2,1.4478 10.5,2.48911 3.3,1.0413 12.525,3.29547 20.5,5.00927 23.5221,5.05482 47.4509,10.99247 53.1703,13.19358 2.9313,1.12815 9.2957,3.53352 14.1431,5.34528 4.8473,1.81175 9.5723,3.96251 10.5,4.77946 0.9276,0.81695 4.3866,2.91641 7.6866,4.66547 3.3,1.74907 9.375,5.14408 13.5,7.54447 4.125,2.40039 10.1573,5.78656 13.405,7.52482 13.2103,7.07037 36.1982,26.58782 51.2723,43.53167 8.0185,9.01312 11.8717,14.25727 17.2254,23.44351 2.4041,4.125 5.7339,9.75 7.3995,12.5 4.7997,7.92407 10.8337,18.56308 13.6274,24.02758 1.4137,2.76517 3.5141,6.36517 4.6674,8 1.1534,1.63483 2.6043,4.46859 3.2241,6.29724 0.6199,1.82865 2.2804,4.69547 3.69,6.37072 1.4096,1.67525 3.2358,4.65639 4.0583,6.62476 0.8224,1.96836 3.2714,5.88101 5.4422,8.69476 2.1708,2.81375 4.575,6.89605 5.3426,9.07177 0.7677,2.17572 2.5455,5.65013 3.9508,7.72091 1.4052,2.07077 3.763,7.46117 5.2394,11.97865 1.4764,4.51749 3.2455,9.11507 3.9314,10.21686 2.0334,3.26671 10.4949,24.96404 12.0224,30.82857 0.7769,2.98287 2.8219,8.50036 4.5444,12.2611 3.1655,6.91159 7.9574,23.8932 7.9574,28.19989 0,1.28627 0.5022,3.27699 1.1159,4.42382 0.6138,1.14682 1.976,6.17974 3.0272,11.18425 1.7982,8.56054 1.8858,13.0057 1.4804,75.09912 -0.237,36.3 -0.8912,70.05 -1.4537,75 -0.5626,4.95 -1.2906,11.925 -1.6177,15.5 -0.5759,6.29263 -2.6682,19.21269 -6.6397,41 -1.0527,5.775 -1.9283,11.625 -1.9458,13 -0.018,1.375 -0.9122,4.975 -1.9881,8 -1.0759,3.025 -2.6606,8.79243 -3.5215,12.8165 -0.861,4.02408 -3.7217,13.69908 -6.3571,21.5 -2.6354,7.80093 -5.1089,15.88396 -5.4965,17.9623 -0.3877,2.07833 -1.5481,5.22833 -2.5788,7 -1.0306,1.77166 -2.6131,5.9212 -3.5165,9.2212 -0.9035,3.3 -2.4721,9.05536 -3.4859,12.78969 -1.0137,3.73433 -2.2867,7.33433 -2.8287,8 -0.5421,0.66567 -1.4495,2.78531 -2.0166,4.71031 -1.4994,5.09026 -5.4685,14.26987 -7.5311,17.41776 -0.9813,1.49773 -2.441,4.58473 -3.2438,6.86 -0.8028,2.27527 -2.7484,6.18107 -4.3237,8.67955 -1.5753,2.49848 -3.1964,5.66769 -3.6024,7.04269 -0.406,1.375 -2.1909,5.425 -3.9664,9 -1.7756,3.575 -4.217,9.50344 -5.4253,13.17432 -1.2083,3.67087 -2.8744,7.23661 -3.7025,7.92385 -0.8281,0.68724 -3.1458,3.7588 -5.1505,6.82568 -2.0048,3.06688 -6.3818,8.27615 -9.7267,11.57615 -3.3449,3.3 -7.1456,7.51601 -8.4459,9.3689 -3.7192,5.2999 -10.5527,9.1311 -16.2865,9.1311 -9.684,0 -15.792,-4.96211 -17.7566,-14.42526 -1.2241,-5.8964 -0.7406,-10.0834 2.1339,-18.48129 3.0918,-9.03277 2.513,-18.53096 -2.1387,-35.09345 -1.0041,-3.575 -2.4006,-9.54165 -3.1034,-13.25921 -1.3164,-6.9632 -2.8478,-7.35316 -2.9091,-0.74079 -0.031,3.28883 -1.0391,7.51051 -5.853,24.5 -2.5797,9.10413 -6.3272,17.91848 -9.285,21.83895 -1.2981,1.72057 -3.3728,4.86933 -4.6105,6.99724 -2.8546,4.90805 -8.816,11.78571 -23.0978,26.64788 -6.2414,6.49511 -12.1653,13.15325 -13.1643,14.79589 -0.9989,1.64264 -2.7853,3.66535 -3.9697,4.49492 -1.9558,1.36994 -2.053,1.88102 -1.0593,5.57125 0.6017,2.23461 2.3197,5.50239 3.8177,7.26174 3.3136,3.89158 9.0504,11.65367 13.5984,18.39924 5.5771,8.2717 17.5459,19.78187 23.6445,22.73844 5.5312,2.68153 8.6528,5.06884 11.1461,8.52428 1.3611,1.88626 13.482,11.43586 16.7032,13.15981 0.9772,0.52295 3.0843,2.83779 4.6826,5.14408 1.8055,2.60537 4.4694,4.86343 7.0346,5.96303 2.2708,0.97338 7.2305,4.85081 11.0215,8.61652 6.44,6.39694 9.6802,9.01017 21.0882,17.0074 2.4798,1.73836 5.7003,4.27635 7.1566,5.63998 1.4564,1.36362 4.673,3.48022 7.148,4.70355 2.475,1.22333 5.8627,3.24459 7.5281,4.49169 5.2155,3.90533 29.309,15.50407 32.2076,15.5049 3.8339,10e-4 14.1949,5.14134 17.534,8.69889 1.5233,1.62298 3.2108,4.48903 3.75,6.36899 1.4376,5.01261 1.1145,18.81523 -0.5485,23.43133 -0.7926,2.2 -1.4479,5.0304 -1.4561,6.2898 -0.01,1.2594 -0.986,4.1844 -2.1727,6.5 -2.6495,5.1702 -4.5877,14.8038 -5.8253,28.9537 -0.5169,5.9089 -1.4071,11.6168 -1.9784,12.6842 -1.2521,2.3395 -1.3769,7.0723 -0.1866,7.0723 0.4687,0 2.3812,-1.1069 4.25,-2.4599 1.8689,-1.3529 5.003,-3.345 6.9648,-4.4269 1.9618,-1.0819 4.1339,-2.6503 4.827,-3.4853 0.693,-0.8351 3.4701,-2.2524 6.1713,-3.1496 2.7012,-0.8972 5.155,-2.0256 5.4529,-2.5076 0.2979,-0.4821 4.2362,-2.7256 8.7517,-4.9857 4.5155,-2.2601 8.9426,-4.7723 9.8381,-5.5826 1.8438,-1.6687 19.3447,-10.4024 20.8446,-10.4024 0.5378,0 2.553,-1.383 4.4782,-3.0733 1.9273,-1.6922 7.1864,-4.3768 11.7029,-5.9739 4.5114,-1.5954 9.3644,-4.0012 10.7845,-5.3463 1.42,-1.345 5.0569,-3.5486 8.0819,-4.8968 3.025,-1.3482 6.85,-3.9006 8.5,-5.6721 1.65,-1.7714 4.6095,-4.0489 6.5767,-5.0611 1.9672,-1.0122 7.2211,-5.6904 11.6755,-10.39612 6.5618,-6.9321 8.3939,-9.57129 9.6543,-13.9067 0.8555,-2.94299 2.815,-6.93567 4.3542,-8.87261 2.7441,-3.45296 4.4616,-9.59774 7.0719,-25.30107 0.5485,-3.3 1.7522,-8.925 2.6747,-12.5 0.9226,-3.575 2.0205,-10.34486 2.4397,-15.04414 0.4193,-4.69928 1.2777,-9.5072 1.9076,-10.68426 0.63,-1.17707 1.1652,-5.8822 1.1893,-10.45586 0.024,-4.60817 0.6864,-10.09914 1.4849,-12.31574 0.7926,-2.2 1.4479,-4.86411 1.4561,-5.92024 0.01,-1.05614 1.3151,-4.88114 2.9041,-8.5 1.5889,-3.61887 3.3564,-8.37976 3.9278,-10.57976 2.8108,-10.82351 8.8673,-27.28297 11.069,-30.082 0.9541,-1.2129 2.8326,-5.68835 4.1745,-9.94543 1.6282,-5.16572 3.6417,-9.10924 6.0536,-11.85636 1.9876,-2.26392 5.4684,-7.80545 7.7352,-12.31453 2.2667,-4.50908 5.4623,-9.72566 7.1013,-11.59241 1.639,-1.86674 4.5483,-6.16855 6.465,-9.55957 5.0894,-9.00407 8.4787,-13.00327 24.6838,-29.12531 15.8663,-15.78501 25.6812,-24.34224 31.1205,-27.13274 1.9145,-0.98222 4.22,-2.91374 5.1232,-4.29226 0.9033,-1.37851 3.7831,-3.71518 6.3997,-5.19258 2.6166,-1.4774 5.6574,-3.68086 6.7574,-4.89658 1.6893,-1.86702 7.1477,-5.66409 30.5,-21.21687 18.5696,-12.3675 26.3221,-17.38983 30.5,-19.7589 2.75,-1.5594 7.0777,-4.75472 9.6172,-7.10073 2.5395,-2.346 7.0395,-5.48555 10,-6.97676 2.9605,-1.49122 7.2852,-4.45408 9.6105,-6.58414 2.3252,-2.13005 4.7111,-3.87283 5.3021,-3.87283 0.591,0 4.4107,-3.0375 8.4883,-6.75 4.0775,-3.7125 9.8685,-8.775 12.8689,-11.25 3.0004,-2.475 5.7672,-5.3542 6.1486,-6.39823 0.3813,-1.04403 3.3131,-4.71432 6.515,-8.15619 4.01,-4.31047 6.176,-7.60977 6.9601,-10.60177 0.6261,-2.3891 2.2298,-6.02166 3.5638,-8.07237 1.334,-2.05071 2.4255,-4.20317 2.4255,-4.78324 0,-0.58008 1.125,-3.27477 2.5,-5.9882 1.375,-2.71343 2.5,-6.06098 2.5,-7.43899 0,-1.37802 1.2153,-6.90548 2.7007,-12.28325 2.3476,-8.49973 2.7456,-12.03021 3.0444,-27.01045 0.2309,-11.57249 -0.029,-17.92947 -0.7915,-19.35407 -0.6245,-1.16676 -1.5085,-5.33705 -1.9646,-9.26731 -0.7485,-6.45029 -1.569,-10.3241 -4.9021,-23.14593 -0.5719,-2.2 -2.1754,-6.21377 -3.5634,-8.91948 -1.3879,-2.70571 -2.5235,-5.73649 -2.5235,-6.73505 0,-2.28291 -6.661,-22.29681 -8.7647,-26.3348 -1.7208,-3.30309 -3.8685,-11.69524 -5.377,-21.01067 -0.5344,-3.3 -1.4757,-8.25 -2.0919,-11 -0.6161,-2.75 -1.4762,-8.375 -1.9112,-12.5 -1.29,-12.2317 -2.4646,-19.32334 -3.6963,-22.3151 -0.7871,-1.91193 -1.1589,-12.10855 -1.1589,-31.78212 0,-23.48624 0.2838,-29.64627 1.5,-32.55702 0.8301,-1.98679 1.5,-6.60151 1.5,-10.33353 0,-5.70504 0.5341,-7.80368 3.4681,-13.62787 4.4887,-8.91017 8.568,-11.85103 16.4387,-11.85103 6.869,0 11.7538,2.70313 14.7591,8.16726 2.7881,5.06936 3.5145,9.94475 2.2049,14.79941 -0.5934,2.2 -1.4224,7.92508 -1.8422,12.72241 -0.4197,4.79732 -1.2918,9.99889 -1.9381,11.55903 -0.8126,1.96192 -1.0538,8.83142 -0.782,22.27759 0.3672,18.16854 1.304,26.61523 3.8622,34.82274 0.5797,1.85998 1.4464,7.25998 1.9258,12 0.4795,4.74003 1.5802,11.99323 2.446,16.11823 0.8658,4.125 1.916,9.34238 2.3337,11.59419 0.4177,2.2518 1.7136,5.92483 2.8799,8.16229 1.1662,2.23745 2.4208,5.79507 2.7879,7.90581 1.091,6.27216 6.2857,21.18337 8.401,24.11461 2.1083,2.92155 4.7519,12.30393 5.9799,21.2231 0.4165,3.025 1.2788,6.76679 1.9162,8.3151 0.6374,1.5483 1.1589,5.20585 1.1589,8.12788 0,2.92202 0.675,6.92827 1.5,8.90278 1.2078,2.89063 1.4977,8.80742 1.4879,30.37212 l -0.012,26.78212 -2.988,8.90977 c -1.6433,4.90038 -2.9899,10.30038 -2.9923,12 -0.01,4.42139 -7.2615,24.75215 -10.2531,28.73208 -1.3884,1.84698 -4.2023,6.73315 -6.2531,10.85815 -2.0509,4.125 -5.8125,9.80252 -8.3591,12.61672 -2.5467,2.81419 -5.5377,6.63919 -6.6468,8.5 -1.1091,1.8608 -3.6211,4.24635 -5.5821,5.30121 -1.9611,1.05486 -4.4286,3.5227 -5.4835,5.48407 -1.1497,2.13779 -3.7203,4.55499 -6.4179,6.03497 -2.475,1.35785 -5.33,3.51507 -6.3445,4.79383 -1.0145,1.27875 -3.4895,3.23051 -5.5,4.33724 -4.0428,2.22543 -7.048,4.36708 -14.9953,10.68615 -2.9369,2.3352 -5.9255,4.24581 -6.6413,4.24581 -0.7158,0 -3.7487,2.44716 -6.7397,5.43814 -2.9909,2.99098 -6.751,5.76765 -8.3556,6.17039 -1.6046,0.40273 -5.3306,2.34307 -8.2801,4.31186 -2.9494,1.96878 -8.4347,5.37961 -12.1896,7.57961 -3.7548,2.2 -8.093,5.18252 -9.6404,6.62781 -1.5474,1.4453 -3.7603,3.11346 -4.9174,3.70701 -1.1572,0.59356 -4,2.66334 -6.3175,4.59951 -2.3174,1.93616 -6.8535,4.92742 -10.0802,6.64723 -3.2267,1.71981 -7.2512,4.64834 -8.9433,6.50784 -1.6921,1.8595 -4.7593,4.25523 -6.8158,5.32385 -2.0566,1.06861 -4.9308,3.4686 -6.3871,5.33332 -1.4563,1.86471 -5.6703,4.93457 -9.3645,6.82191 -5.5003,2.81012 -9.9643,6.70317 -24.6508,21.49832 -9.8638,9.93675 -18.5027,19.16175 -19.1975,20.5 -0.6949,1.33826 -1.9762,3.5582 -2.8473,4.9332 -0.8711,1.375 -1.8859,3.51196 -2.255,4.7488 -0.3691,1.23683 -2.4579,4.83683 -4.6418,8 -2.1839,3.16316 -4.6955,6.8762 -5.5814,8.2512 -0.8858,1.375 -2.8358,4.3 -4.3333,6.5 -3.5911,5.27571 -9.5087,17.22571 -10.3992,21 -0.3892,1.65 -1.7977,4.58964 -3.1299,6.53253 -1.3321,1.94288 -3.3086,6.99863 -4.392,11.23499 -2.5138,9.82883 -4.5563,15.82577 -7.0645,20.74221 -1.0972,2.15083 -2.0148,5.61602 -2.0389,7.70043 -0.024,2.08441 -0.6924,5.58984 -1.4849,7.78984 -0.7926,2.2 -1.4479,6.82695 -1.4561,10.28212 -0.01,3.45516 -0.6901,7.89762 -1.5151,9.87212 -0.8352,1.99903 -1.5,6.60921 -1.5,10.40278 0,3.74703 -0.5116,8.07958 -1.1369,9.62788 -1.3792,3.41497 -2.6695,9.60481 -3.8326,18.38571 -1.5443,11.65863 -7.4328,31.06013 -10.561,34.79641 -1.2125,1.44814 -3.5774,5.35988 -5.2554,8.69278 -1.678,3.3329 -3.7626,6.6505 -4.6325,7.3725 -0.8699,0.7219 -1.5816,1.8691 -1.5816,2.5494 0,0.6802 -1.6986,3.2126 -3.7747,5.6275 -2.0761,2.4149 -4.9506,6.1908 -6.3877,8.3908 -1.7888,2.7384 -4.4619,4.9209 -8.4753,6.9197 -3.2242,1.6058 -7.4373,4.3473 -9.3623,6.0922 -1.925,1.7448 -6.2,4.6532 -9.5,6.463 -3.3,1.8099 -7.6762,4.7945 -9.7248,6.6325 -2.0486,1.838 -4.9736,3.6515 -6.5,4.0299 -1.5264,0.3785 -4.3502,1.7125 -6.2752,2.9645 -1.925,1.2521 -4.8358,2.6023 -6.4684,3.0006 -1.6327,0.3982 -9.9577,4.2468 -18.5,8.5524 -14.7551,7.4369 -21.5042,11.2385 -34.0316,19.1692 -3.025,1.9151 -7.975,4.7009 -11,6.1908 -3.025,1.4899 -6.85,3.7122 -8.5,4.9383 -1.65,1.2262 -10.1323,5.7848 -18.8495,10.1302 -16.6447,8.2972 -18.6505,10.0362 -18.6505,16.1702 0,1.5691 -1.8,9.9494 -4,18.6229 -2.9699,11.709 -4,17.7705 -4,23.5379 0,4.2723 -0.6701,9.9769 -1.4892,12.6768 -0.819,2.6999 -1.494,6.7662 -1.5,9.0363 -0.01,2.2701 -1.3582,8.3451 -3.005,13.5 -1.6469,5.1549 -2.9969,10.1381 -3,11.0738 0,0.9357 -0.6808,4.2927 -1.5058,7.4601 -0.953,3.6589 -1.5,10.3989 -1.5,18.4837 0,6.9986 -0.4439,13.8925 -0.9866,15.3196 -0.5426,1.4272 -1.2047,7.2434 -1.4714,12.9251 -0.2668,5.6816 -0.9813,11.6307 -1.5878,13.2202 -0.6066,1.5896 -1.078,8.2901 -1.0475,14.8901 0.031,6.6 -0.408,13.8 -0.9744,16 -0.5664,2.2 -1.7273,6.7 -2.5798,10 -0.8525,3.3 -1.8764,11.175 -2.2752,17.5 -0.3989,6.325 -1.2544,12.7668 -1.9013,14.3151 -0.6471,1.5492 -1.176,7.5221 -1.176,13.2821 0,7.0418 -0.4909,11.6418 -1.5,14.057 -1.1131,2.6641 -1.5,7.5645 -1.5,19 0,11.4356 -0.3869,16.3359 -1.5,19 -1.0784,2.5811 -1.5,7.3315 -1.5,16.9028 0,7.7152 -0.4826,14.4965 -1.1477,16.1279 -1.6142,3.9595 -1.6159,87.6775 0,91.6302 0.6597,1.6157 1.1495,8.2743 1.1495,15.6279 0,9.1269 0.4315,13.8455 1.5,16.40282 1.1131,2.6641 1.5,7.5644 1.5,19 0,11.4355 0.3869,16.3359 1.5,19 1.0073,2.4106 1.5,7.0085 1.5,13.9964 0,6.6939 0.5351,11.923 1.5,14.6578 0.825,2.3383 1.5068,7.6824 1.5151,11.8757 0.01,4.1934 0.6635,9.4243 1.4561,11.6243 0.8481,2.3543 1.4591,7.8327 1.4849,13.3157 0.024,5.1237 0.5402,10.2432 1.1469,11.3767 0.6066,1.1336 1.4562,6.3915 1.8878,11.6843 0.8065,9.8889 2.3249,20.3776 4.037,27.8877 0.5347,2.3453 0.9722,12.7529 0.9722,23.1278 0,14.5054 0.3466,19.693 1.5,22.4536 2.3127,5.535 2.0446,21.6664 -0.4411,26.5387 -4.4968,8.8145 -15.1753,14.779 -27.8256,15.5422 -4.5211,0.2727 -9.0935,0.9633 -10.161,1.5346 -1.1962,0.6402 -11.7021,1.0387 -27.3844,1.0387 -20.3544,0 -26.1617,0.3 -29.0337,1.5 -2.6307,1.0992 -7.4625,1.5 -18.0825,1.5 -10.8276,0 -15.8934,0.4314 -20.0321,1.7058 l -5.5396,1.7058 0,15.6721 c 0,11.6685 -0.3832,16.5891 -1.5,19.2621 -0.825,1.9745 -1.5,5.8251 -1.5,8.557 0,2.7318 -0.4853,6.2338 -1.0783,7.7821 -1.4387,3.7557 -1.3853,87.5803 0.057,90.2761 0.5615,1.0491 1.0209,7.5071 1.0209,14.3511 0,8.7988 0.4394,13.4952 1.5,16.0337 0.8909,2.1321 1.5061,6.7502 1.5151,11.3721 0.01,4.2801 0.6635,9.5821 1.4561,11.7821 0.7925,2.2 1.4608,7.4619 1.4849,11.6931 0.033,5.8058 0.7799,9.8898 3.0439,16.6475 2.0413,6.0929 3,10.9256 3,15.1226 0,3.3926 0.5201,7.1402 1.1559,8.3281 0.6357,1.1879 1.4837,7.3458 1.8844,13.6842 0.4007,6.3385 1.248,13.5045 1.8829,15.9246 1.2675,4.8316 0.5905,12.0749 -1.5171,16.2308 -3.1535,6.2182 -11.8236,10.5272 -18.5207,9.2047 -5.9044,-1.1659 -9.6461,-4.418 -13.5151,-11.7467 -3.3899,-6.4209 -3.7129,-7.8038 -4.5548,-19.5 -2.1104,-29.3197 -2.398,-31.3935 -5.1441,-37.0889 -2.179,-4.5193 -2.6563,-6.9264 -2.6767,-13.5 -0.014,-4.4 -0.6733,-9.8 -1.4659,-12 -0.8481,-2.3543 -1.4591,-7.8327 -1.4849,-13.3157 -0.025,-5.2311 -0.5662,-10.2735 -1.235,-11.5 -0.6551,-1.2014 -1.4962,-8.7093 -1.8691,-16.6843 -0.3728,-7.975 -1.1761,-16.3 -1.785,-18.5 -1.7709,-6.3986 -1.5572,-98.7178 0.2433,-105.0685 0.769,-2.7123 1.6312,-8.3779 1.916,-12.5903 0.2848,-4.2123 1.0057,-8.5702 1.6019,-9.6842 0.5962,-1.114 1.084,-6.3301 1.084,-11.5913 l 0,-9.5657 -165.25,-0.044 c -141.28874,-0.038 -165.83,-0.2528 -169.25,-1.4849 -2.9923,-1.078 -9.23556,-1.4449 -24.78212,-1.4561 -16.18409,-0.012 -21.5764,-0.347 -24.37212,-1.5151 -1.97451,-0.825 -5.72848,-1.5 -8.34216,-1.5 -2.61368,0 -6.49622,-0.6061 -8.62787,-1.3469 -2.67858,-0.9309 -8.66344,-1.307 -19.37573,-1.2178 -8.525,0.071 -17.3,-0.269 -19.5,-0.7555 -2.2,-0.4865 -9.96337,-1.176 -17.25193,-1.5322 l -13.25192,-0.6476 -0.0302,9 c -0.21768,64.8315 -0.0178,82.5345 0.95226,84.3471 0.7312,1.3663 1.08181,17.0725 1.08181,48.4614 0,38.7238 0.24923,47.1464 1.5,50.6915 0.97673,2.7683 1.5,8.0023 1.5,15.0036 0,7.2952 0.48226,11.9064 1.5,14.3422 1.07459,2.5718 1.50427,7.3569 1.51506,16.8721 0.0102,9.0133 0.4782,14.5677 1.4561,17.2821 0.79258,2.2 1.46081,6.8404 1.48495,10.3121 0.0241,3.4717 0.77798,8.5565 1.6752,11.2996 2.39123,7.3107 1.52917,23.2745 -1.52359,28.214 -4.18911,6.7781 -13.06174,9.9184 -20.45253,7.2388 z M 574.3458,1216.3622 c 2.6532,-1.1086 7.5297,-1.5 18.6878,-1.5 10.2467,0 15.7997,-0.4016 17.2821,-1.25 1.5182,-0.8688 10.5707,-1.4451 29.6843,-1.8898 16.8154,-0.3912 30.0255,-1.1683 34,-2 l 6.5,-1.3602 -0.5,-21.5 c -0.275,-11.825 -0.8571,-22.0513 -1.2936,-22.7251 -0.4365,-0.6737 -1.1781,-4.9487 -1.648,-9.5 -0.9603,-9.3013 -2.6329,-20.1644 -4.0862,-26.5393 -0.5347,-2.3453 -0.9722,-8.2529 -0.9722,-13.1278 0,-5.6165 -0.5495,-10.1787 -1.5,-12.4536 -0.9626,-2.3039 -1.5054,-6.9151 -1.5151,-12.8721 -0.01,-5.527 -0.598,-10.9003 -1.4561,-13.2821 -0.8395,-2.3303 -1.4593,-7.8086 -1.4849,-13.1243 -0.026,-5.4431 -0.6491,-10.8395 -1.5439,-13.3757 -1.0767,-3.0517 -1.5,-8.4677 -1.5,-19.1915 0,-9.7812 -0.4162,-15.6942 -1.2052,-17.1242 -0.7277,-1.3188 -1.4801,-9.3165 -1.8989,-20.18432 -0.3815,-9.9 -1.1696,-20.025 -1.7512,-22.5 -0.6545,-2.7847 -1.0742,-21.0966 -1.1011,-48.0399 -0.036,-35.5816 0.2306,-44.5925 1.4564,-49.2988 0.9212,-3.5366 1.5,-10.2896 1.5,-17.5 0,-7.2104 0.5788,-13.9634 1.5,-17.5 1.002,-3.8469 1.5146,-10.8057 1.5439,-20.9601 0.031,-10.621 0.4781,-16.4064 1.4849,-19.2012 0.8504,-2.3603 1.4653,-7.8943 1.5,-13.5 0.035,-5.6057 0.6497,-11.1397 1.5,-13.5 0.8893,-2.4685 1.4469,-7.8563 1.4561,-14.0719 0.01,-5.6866 0.6137,-11.9998 1.3899,-14.5 2.8648,-9.2272 3.7197,-14.8862 3.7551,-24.859 0.02,-5.6583 0.6741,-12.7356 1.4533,-15.7273 0.7792,-2.9916 1.4168,-8.6979 1.4168,-12.6805 0,-3.9826 0.675,-9.8326 1.5,-13 0.8588,-3.2973 1.5001,-10.1192 1.5002,-15.9601 2e-4,-9.6605 0.4203,-12.3404 6.0292,-38.4655 0.5035,-2.3454 1.3779,-5.1283 1.9431,-6.1843 0.5651,-1.0559 1.0275,-4.889 1.0275,-8.5178 0,-3.6288 0.675,-8.2133 1.5,-10.1878 0.8725,-2.0882 1.5,-6.6704 1.5,-10.9536 0,-4.0499 0.4363,-9.2825 0.9696,-11.6278 1.5328,-6.7416 3.7014,-15.7483 5.3608,-22.2644 2.7882,-10.949 4.6865,-19.9717 4.678,-22.2351 0,-1.2293 1.3416,-6.2985 2.9916,-11.2649 1.65,-4.9664 3,-11.0188 3,-13.4498 0,-2.431 0.5088,-5.6868 1.1306,-7.2351 1.1705,-2.9144 2.1915,-10.487 3.7785,-28.0255 0.5082,-5.6158 1.211,-10.6749 1.5618,-11.2425 0.3508,-0.5676 1.0654,-3.8479 1.588,-7.2895 0.5226,-3.4417 2.1367,-8.805 3.5869,-11.9184 1.4501,-3.1134 2.3824,-6.3233 2.0717,-7.133 -0.3107,-0.8098 -7.2368,-4.8264 -15.3912,-8.9259 -8.1545,-4.09954 -17.3013,-9.00681 -20.3263,-10.90508 -3.025,-1.89827 -8.0742,-4.67911 -11.2204,-6.17964 -3.2104,-1.53114 -6.94,-4.28916 -8.5,-6.28565 -1.5288,-1.95657 -4.8046,-4.60904 -7.2796,-5.89437 -2.475,-1.28534 -6.0709,-3.97293 -7.9909,-5.97243 -1.92,-1.99949 -5.3371,-4.71738 -7.5935,-6.03974 -2.2565,-1.32236 -5.2977,-3.97116 -6.7584,-5.88624 -1.4607,-1.91507 -3.6687,-3.80212 -4.9065,-4.19344 -3.4684,-1.09642 -8.7935,-5.50241 -11.9938,-9.92371 -3.0512,-4.2151 -9.1564,-9.45593 -16.9099,-14.51574 -2.5592,-1.67006 -4.9073,-3.69904 -5.2181,-4.50884 -0.3107,-0.8098 -3.1061,-2.59616 -6.2119,-3.96969 -4.1361,-1.82918 -7.8234,-4.76024 -13.7819,-10.95534 -9.8358,-10.22619 -15.7169,-17.03331 -18.1869,-21.05039 -1.0145,-1.65 -3.9492,-5.2761 -6.5215,-8.05801 -2.5722,-2.78191 -5.4196,-6.49441 -6.3274,-8.25 -0.9079,-1.75559 -1.9868,-3.19199 -2.3977,-3.19199 -1.1536,0 -21.7728,20.9954 -25.043,25.5 -1.5972,2.2 -7.4272,8.275 -12.9556,13.5 -15.2956,14.45599 -20.413,18.42341 -31.0436,24.06731 -13.3805,7.1039 -34.5727,21.25227 -39.6355,26.46153 -2.3024,2.36899 -7.2468,5.9309 -10.9874,7.91537 -3.7407,1.98447 -7.9792,4.42179 -9.4189,5.41627 -1.4397,0.99448 -4.6426,2.58715 -7.1176,3.53926 -2.475,0.9521 -6.075,2.74431 -8,3.98268 -9.9679,6.41247 -18.6918,7.83234 -45,7.32406 -24.22008,-0.46793 -38.26309,-1.7723 -42.5755,-3.95457 -1.60848,-0.81396 -5.35737,-1.79096 -8.33088,-2.17111 -2.97351,-0.38015 -6.69497,-1.35753 -8.2699,-2.17196 -1.57494,-0.81443 -7.01707,-2.83743 -12.09362,-4.49554 -5.07656,-1.65812 -10.22677,-3.66693 -11.44492,-4.46403 -1.21815,-0.7971 -2.78445,-1.44927 -3.48067,-1.44927 -0.69622,0 -3.52455,-0.84695 -6.28518,-1.88211 C 260.7587,383.9449 252.425,381.15886 245,378.78885 c -15.19935,-4.85151 -18.51491,-6.25949 -21.78566,-9.25145 -2.58021,-2.3603 -8.08204,-5.64145 -19.62795,-11.70565 C 194.16919,352.88561 166,334.21825 166,332.92373 c 0,-0.49854 -1.50883,-1.4044 -3.35295,-2.01302 -1.84412,-0.60861 -4.43162,-2.27235 -5.75,-3.6972 -1.31838,-1.42484 -4.11612,-3.68736 -6.2172,-5.02781 -2.10109,-1.34045 -7.05109,-5.22584 -11,-8.63419 -3.94892,-3.40836 -8.8497,-7.3169 -10.89063,-8.68564 -2.04093,-1.36874 -4.26972,-3.53299 -4.95286,-4.80945 -0.68313,-1.27645 -2.55314,-3.07984 -4.15556,-4.00753 -1.60242,-0.92769 -5.05993,-4.83671 -7.68337,-8.68671 -2.62343,-3.85 -8.19608,-10.5471 -12.38366,-14.88244 C 95.4262,268.1444 92,264.18869 92,263.68927 c 0,-0.49941 -1.2375,0.24662 -2.75,1.65786 -1.5125,1.41124 -4.44789,3.07879 -6.52309,3.70567 -2.47269,0.74696 -6.0578,3.47532 -10.40214,7.91628 -3.64597,3.72707 -7.89562,7.30113 -9.44365,7.94234 -1.54804,0.64122 -3.08409,2.0149 -3.41345,3.05264 -0.32937,1.03773 -6.2395,7.62683 -13.13363,14.64245 -6.89414,7.01562 -13.55239,14.33067 -14.79612,16.25567 -1.24373,1.925 -3.78606,5.41222 -5.64963,7.74939 -1.86356,2.33716 -5.41329,6.99329 -7.88829,10.34695 -6.49385,8.79927 -11.12847,13.99581 -14.10329,15.81322 -1.43181,0.87474 -7.08837,5.77295 -12.57014,10.88491 -9.61329,8.96476 -21.24882,17.20381 -24.29757,17.20497 -0.80905,3.1e-4 -4.02915,2.53202 -7.15578,5.62602 -3.12663,3.094 -7.24989,6.5815 -9.16279,7.75 -6.73212,4.1123 -12.25074,7.96894 -16.14043,11.27959 -2.1615,1.83972 -4.36598,3.34495 -4.89884,3.34495 -0.53287,0 -4.44506,3.41285 -8.69376,7.58412 -4.2487,4.17127 -9.01922,8.38188 -10.60116,9.35678 -1.58193,0.975 -3.77624,2.7896 -4.87624,4.0323 -1.1,1.2428 -3.9125,3.5788 -6.25,5.1912 l -4.25,2.9317 0,71.8868 c 0,49.0505 -0.34294,72.7812 -1.07954,74.702 -1.37462,3.5846 -1.70362,189.2675 -0.33911,191.3877 0.54617,0.8486 1.12138,83.129 1.41865,202.9274 l 0.5,201.50002 6.5,0.6419 c 10.53003,1.0399 22.28378,2.8373 25.39922,3.884 1.59458,0.5358 4.29458,0.9753 6,0.9768 1.70543,0 8.27578,1.294 14.60078,2.8723 6.325,1.5783 14.94644,3.1143 19.15876,3.4133 4.21231,0.299 8.57023,1.0315 9.68426,1.6277 1.11402,0.5962 4.86758,1.1038 8.34124,1.1279 3.47366,0.024 8.11574,0.6924 10.31574,1.4849 2.2,0.7926 6.08092,1.4479 8.62427,1.4561 2.54335,0.01 6.53743,0.6901 8.87573,1.5151 2.3383,0.825 5.74058,1.5 7.56063,1.5 1.82004,0 4.57597,0.4849 6.12427,1.0776 1.67114,0.6397 10.62307,1.0645 22.02919,1.0454 13.67839,-0.023 20.82308,0.3868 24.79879,1.4224 3.12746,0.8146 10.09074,1.4546 15.82581,1.4546 5.87704,0 12.69516,0.6392 16,1.5 4.08201,1.0632 10.97576,1.5 23.67515,1.5 12.57619,0 19.19343,0.4144 22.20121,1.3903 2.35672,0.7647 7.31996,1.6476 11.02942,1.9619 3.70946,0.3143 7.61738,1.0387 8.68426,1.6097 1.15185,0.6164 10.3951,1.061 22.75553,1.0945 14.72458,0.04 21.83992,0.444 24.31574,1.3807 2.8515,1.0789 35.85597,1.3464 178.1279,1.4436 153.1459,0.1046 175.0695,-0.065 178.2179,-1.3807 z M 376.8573,932.47298 c -6.8899,-2.4614 -10.29306,-5.1951 -15.11929,-12.1448 l -4.83754,-6.966 0.29977,-14.6873 c 0.29552,-14.4794 0.33868,-14.7279 3.04976,-17.5547 1.5125,-1.5771 2.75,-3.4246 2.75,-4.1056 0,-1.7416 8.8815,-11.0397 12.1689,-12.7397 3.7183,-1.9228 17.8053,-1.8681 22.4853,0.087 1.9745,0.825 5.8976,1.5095 8.7179,1.5211 8.0006,0.033 17.7668,3.9599 23.0923,9.2854 2.4852,2.4852 4.9724,5.7123 5.5271,7.1712 1.5526,4.0837 1.2509,22.3123 -0.4555,27.5223 -0.8106,2.475 -1.7155,6.093 -2.0109,8.04 -0.7365,4.8555 -9.7026,13.7497 -15.1301,15.0087 -6.1076,1.4168 -36.2578,1.0912 -40.5377,-0.4379 z M 408,904.81248 c 0,-1.6773 0.7155,-4.4332 1.59,-6.1243 2.0757,-4.0141 1.0103,-5.103 -8.1591,-8.3383 -11.2983,-3.9865 -14.8995,-3.037 -18.2401,4.8094 -1.8259,4.2886 -1.4414,6.8319 1.4963,9.8982 2.6039,2.7179 3.0061,2.8047 13,2.8047 l 10.3129,0 0,-3.0497 z m 50,24.3476 c -4.2948,-2.2062 -6.9845,-7.2911 -7.0339,-13.2979 -0.02,-2.475 -0.6801,-5.625 -1.4661,-7 -0.9549,-1.6704 -1.4409,-5.6577 -1.4646,-12.0156 -0.041,-10.9529 1.3217,-14.5295 7.4127,-19.4593 3.6604,-2.9627 3.9677,-3.0251 14.8947,-3.0251 6.4847,0 11.9557,0.4722 13.0639,1.1274 1.6208,0.9584 2.4453,0.564 5.5,-2.6309 2.949,-3.0846 4.5492,-3.8883 8.9248,-4.4825 2.9323,-0.3983 7.8221,-0.4129 10.8661,-0.033 7.5073,0.938 13.5098,6.2804 15.7624,14.029 0.98,3.371 3.2058,7.2778 6.034,10.5912 7.0493,8.2585 7.4449,16.7489 1.0553,22.6484 -2.8986,2.6764 -4.3243,3.25 -8.0775,3.25 -4.0548,0 -5.1151,-0.5216 -9.6132,-4.7291 -2.7807,-2.6009 -6.6302,-7.1009 -8.5544,-10 -1.9243,-2.899 -3.8352,-5.2709 -4.2465,-5.2709 -0.4112,0 -1.525,0.8589 -2.475,1.9086 -0.95,1.0498 -3.0133,2.4413 -4.585,3.0924 -2.9722,1.2311 -13.2029,0.9676 -16.2477,-0.4184 -1.5931,-0.7252 -1.75,-0.022 -1.75,7.8425 0,5.1906 -0.5654,9.9924 -1.4165,12.0292 -2.6562,6.3572 -10.3237,9.059 -16.5835,5.8436 z m -167.10212,-6.7578 c -1.86883,-1.3529 -5.07611,-3.3823 -7.12727,-4.5098 -5.86315,-3.2228 -6.77061,-6.0186 -6.77061,-20.8598 0,-11.6222 0.2491,-13.4716 2.46484,-18.2997 3.10668,-6.7694 15.59871,-19.455 20.55894,-20.8776 4.47426,-1.2832 13.4661,-1.2626 18.16194,0.042 13.61,3.7801 10.71839,23.9652 -3.43311,23.9652 -2.57008,0 -4.16981,0.8702 -6.89366,3.75 -1.95082,2.0625 -4.12649,5.224 -4.83484,7.0255 -1.12254,2.855 -1.06584,3.5209 0.44169,5.1867 1.55412,1.7173 3.503,1.943 19.21107,2.2245 l 17.48148,0.3133 3.42083,3.7353 c 2.72062,2.9708 3.42082,4.5673 3.42082,7.7997 0,5.4525 -2.18769,9.3516 -6.35708,11.3302 -2.85597,1.3552 -7.11382,1.6348 -24.89617,1.6348 -21.20015,0 -21.49072,-0.029 -24.84887,-2.4599 z m -71.14222,-5.2949 c -7.27108,-4.5083 -7.46074,-15.9323 -0.34196,-20.5967 3.11154,-2.0388 9.74792,-2.1334 13.50111,-0.1926 2.97818,1.5401 6.08519,6.8986 6.08519,10.4949 0,3.0589 -2.51704,7.5241 -5.61488,9.9609 -3.27525,2.5763 -9.75642,2.7349 -13.62946,0.3335 z m 145.27007,-100.4286 c -4.43958,-3.0178 -5.84879,-7.5946 -5.94888,-19.3209 -0.0594,-6.9608 -0.64424,-10.5686 -2.57685,-15.8968 -2.33767,-6.445 -2.5,-8.1283 -2.5,-25.9252 0,-16.7768 0.25502,-19.8115 2.15148,-25.6032 2.57109,-7.852 10.14472,-16.5023 15.83142,-18.0822 1.9344,-0.5374 9.5921,-0.9817 17.0171,-0.9872 11.813,-0.01 14.5288,0.317 21.7324,2.6065 7.3338,2.3308 8.9165,3.3011 14.5,8.8889 5.4163,5.4206 6.584,7.2742 8.5974,13.6475 2.0748,6.568 2.2937,8.9265 2,21.5529 -0.3249,13.9669 -0.3714,14.2212 -3.1289,17.0964 l -2.7991,2.9186 5.6209,2.8439 c 3.0914,1.5641 6.0536,3.6525 6.5825,4.6408 0.5289,0.9883 2.6341,2.6602 4.6782,3.7154 2.0441,1.0552 5.5166,3.7783 7.7166,6.0515 3.557,3.6752 4,4.674 4,9.019 0,4.049 -0.5058,5.4141 -2.9524,7.9678 -5.5092,5.7504 -14.6505,6.0691 -21.2521,0.7409 -1.5375,-1.2409 -4.708,-3.4855 -7.0455,-4.9879 -2.3375,-1.5024 -4.25,-3.1693 -4.25,-3.7041 0,-0.5348 -1.5253,-1.6097 -3.3896,-2.3886 -1.8642,-0.7789 -5.1813,-3.035 -7.3712,-5.0134 -2.1899,-1.9785 -4.7007,-3.5972 -5.5796,-3.5972 -2.5083,0 -9.8382,-4.0155 -13.3908,-7.3359 -3.8459,-3.5945 -5.6804,-8.5137 -4.7517,-12.7418 1.3649,-6.2145 10.4513,-13.4799 19.2329,-15.3785 2.6068,-0.5636 3.25,-1.1948 3.25,-3.189 0,-1.3675 -0.5281,-3.4692 -1.1736,-4.6705 -0.6456,-1.2014 -1.4499,-3.5265 -1.7875,-5.167 -0.9381,-4.5584 -8.5294,-7.5173 -19.2867,-7.5173 -6.412,0 -6.6519,0.092 -8.179,3.1536 -1.1638,2.3331 -1.5677,6.1712 -1.5521,14.75 0.018,9.9329 0.3893,12.6006 2.5882,18.5964 1.8679,5.0934 2.7138,9.7663 3.1058,17.1564 1.0887,20.525 -1.5759,27.1569 -11.2745,28.0612 -4.0266,0.3754 -5.58331,0.024 -8.41487,-1.901 z m -325.26316,-2.382 C 35.22957,811.83718 34,808.11928 34,796.87198 c 0,-8.3552 -0.36982,-10.8131 -2.15159,-14.2996 C 28.93245,776.86648 25,764.26018 25,760.61838 c 0,-1.6312 -1.04887,-5.0561 -2.33083,-7.611 -1.28195,-2.5548 -2.65836,-5.9952 -3.05867,-7.6452 -0.40031,-1.65 -1.57185,-4.8 -2.60342,-7 -8.41449,-17.9454 -8.06485,-32.316 0.89904,-36.9515 4.00346,-2.0702 21.49804,-2.1041 25.09388,-0.049 1.81662,1.0385 6.19027,1.4398 16,1.4683 11.73761,0.034 13.93213,0.3026 16.81018,2.0573 6.01578,3.6678 7.49336,11.5291 3.35427,17.8462 -2.774,4.2336 -6.82813,5.1282 -23.24074,5.1282 l -15.14053,0 0.65516,2.6104 c 0.36034,1.4356 1.63673,4.6981 2.83642,7.25 1.1997,2.5518 3.10956,7.335 4.24415,10.6293 1.9658,5.7078 2.2465,6.0195 5.96473,6.6239 5.84746,0.9505 9.51636,5.5096 9.51636,11.8255 0,3.7362 -0.5792,5.5958 -2.4268,7.7915 -2.30834,2.7433 -2.44258,3.654 -2.75,18.6561 l -0.3232,15.772 -3.73531,3.4206 c -3.05744,2.7999 -4.50927,3.4134 -8,3.3807 -2.34558,-0.022 -5.49653,-0.7085 -7.00212,-1.5254 z m 62.65774,-0.3201 c -1.69383,-1.0329 -3.53883,-3.1687 -4.1,-4.7462 -0.56117,-1.5776 -1.59604,-4.4433 -2.29971,-6.3683 -0.70367,-1.925 -1.59965,-5.975 -1.99107,-9 -0.39142,-3.025 -1.23319,-6.7668 -1.8706,-8.3151 -0.70477,-1.7119 -1.15747,-8.7658 -1.15519,-18 0.004,-16.9099 0.94223,-20.0542 6.90238,-23.1364 5.87034,-3.0356 12.59414,-1.0561 16.13436,4.75 1.64007,2.6898 1.95264,5.0611 1.95578,14.8372 0.003,8.3705 0.42294,12.4395 1.49758,14.5 0.82161,1.5754 1.49661,4.7218 1.5,6.9922 0.003,2.2703 0.68116,5.7434 1.50616,7.7179 3.04117,7.2785 1.26737,16.3322 -4.01368,20.4863 -3.47369,2.7324 -9.83876,2.8602 -14.06601,0.2824 z m 114.46117,0.3824 C 214.06549,812.82878 211,807.39278 211,803.92948 c 0,-2.5086 -3.48599,-13.1726 -5.71528,-17.4836 -3.30951,-6.3999 -6.28553,-21.3072 -6.26086,-31.3615 0.0321,-13.0741 1.01605,-16.7327 5.78194,-21.4986 9.32866,-9.3287 23.51432,-3.6998 21.80478,8.6521 -0.31395,2.2684 -0.84363,6.1808 -1.17708,8.6944 l -0.60626,4.57 6.06755,-0.4389 c 5.85222,-0.4233 6.19243,-0.314 9.58638,3.08 3.0911,3.0911 3.51883,4.1294 3.51883,8.5421 0,6.148 -3.32492,10.7718 -8.43516,11.7305 -3.13379,0.5879 -3.27541,0.7956 -2.59611,3.8075 0.39517,1.7522 1.23887,4.1581 1.87488,5.3465 0.63601,1.1884 1.15639,5.8348 1.15639,10.3253 0,9.4432 -1.78534,14.2874 -6.08519,16.511 -3.54212,1.8317 -9.61645,1.8097 -13.03333,-0.047 z m -67.86709,-1.4742 c -1.91709,-0.4766 -4.78004,-2.3152 -6.36212,-4.0858 -2.58953,-2.8982 -2.83168,-3.76 -2.42719,-8.6376 0.54759,-6.6032 2.51073,-8.8428 9.84784,-11.2347 l 5.31451,-1.7325 -6.18562,-1.8529 c -3.80267,-1.139 -7.24814,-2.9612 -8.94371,-4.7299 -2.53426,-2.6436 -2.78558,-3.6241 -3.09674,-12.0816 -0.27299,-7.4202 0.0816,-10.461 1.82927,-15.6861 2.00647,-5.999 6.14734,-11.9816 8.29301,-11.9816 0.5002,0 2.94831,-1.7947 5.44024,-3.9882 4.97489,-4.379 9.41289,-6.0102 16.27612,-5.9824 6.87482,0.028 12.0465,1.5626 14.90748,4.4235 2.21955,2.2196 2.59252,3.4643 2.59252,8.6519 0,5.5321 -0.27359,6.3037 -3.14452,8.8689 -2.13153,1.9045 -4.74331,3.0295 -8.10751,3.4922 -8.10589,1.1148 -15.05251,6.4851 -8.49797,6.5695 1.5125,0.02 3.875,0.6786 5.25,1.4646 1.375,0.786 4.00557,1.4451 5.84571,1.4646 4.36177,0.046 8.62362,2.6281 10.67186,6.4652 1.31247,2.4587 1.56332,5.261 1.25952,14.0702 -0.47287,13.712 -2.84158,20.9955 -8.09878,24.9028 -2.49198,1.8522 -4.36154,2.1199 -16,2.2918 -7.24807,0.107 -14.74684,-0.1953 -16.66392,-0.6719 z m 151.72205,0.109 c -3.90266,-0.8921 -9.14324,-5.3618 -11.08562,-9.4551 C 288.5786,801.27918 288,797.46668 288,792.66108 c 0,-4.5869 -0.47508,-7.8732 -1.25,-8.6469 -0.8969,-0.8954 -1.34224,-7.0948 -1.57655,-21.9467 -0.42334,-26.8345 -0.20102,-28.1924 5.63737,-34.4341 7.29157,-7.7953 12.66916,-10.0763 24.93985,-10.5785 13.86372,-0.5675 18.5271,0.2389 22.11169,3.8235 5.63788,5.6379 4.63748,14.8796 -2.05218,18.9582 -2.67651,1.6318 -5.04754,2.0188 -12.38587,2.0219 -8.31142,0 -9.2676,0.208 -11.35476,2.4297 -2.83704,3.0199 -2.19959,4.1377 2.81706,4.9399 5.75518,0.9203 9.11339,5.2725 9.11339,11.8108 0,4.3794 -0.4358,5.4591 -3.4,8.4233 -2.45309,2.4531 -4.29316,3.4 -6.60699,3.4 -2.69108,0 -3.07884,0.2815 -2.41037,1.75 0.43814,0.9625 0.97625,4.3375 1.19581,7.5 l 0.39919,5.75 8.46836,0 c 16.29584,0 22.354,3.5231 22.354,13 0,5.9492 -3.30439,10.4348 -8.81428,11.9652 -3.93945,1.0941 -29.84318,1.2193 -34.44928,0.1665 z m -33.32125,-3.5141 c -3.6355,-1.6289 -7.41519,-6.1029 -7.41519,-8.7774 0,-1.0396 -1.63981,-5.1414 -3.64403,-9.1152 -2.00421,-3.9737 -4.93062,-11.1876 -6.50313,-16.0307 -1.5725,-4.8431 -3.56375,-10.1684 -4.425,-11.8338 -5.4481,-10.5355 -7.81534,-25.3258 -5.42859,-33.9173 2.1714,-7.8165 10.34926,-11.7698 17.41301,-8.4178 4.53302,2.151 6.61466,5.9957 7.22132,13.3371 0.59653,7.219 1.87676,12.0541 5.33188,20.1375 1.52807,3.575 3.24022,7.85 3.80477,9.5 3.0691,8.9701 5.74992,14.825 8.72977,19.0658 2.71565,3.8647 2.86201,16.7066 0.23607,20.7143 -3.58346,5.469 -10.02135,7.7119 -15.32088,5.3375 z M -45,670.24718 c -9.15001,-3.2408 -9.40141,-4.0107 -10.08525,-30.885 -0.32189,-12.65 -1.09866,-24.8 -1.72615,-27 -1.39023,-4.8742 -1.59075,-68.0605 -0.23454,-73.9075 1.27024,-5.4763 4.82282,-8.7003 10.26252,-9.3134 5.84291,-0.6586 10.1745,1.607 12.75932,6.6737 1.09754,2.1513 2.46202,4.1998 3.03219,4.5522 0.57017,0.3524 2.32653,3.1954 3.90302,6.3178 1.5765,3.1225 5.39143,8.5067 8.47762,11.965 3.0862,3.4583 5.61127,7.2142 5.61127,8.3465 0,1.1324 1.8,4.1037 4,6.603 2.2,2.4994 4,5.045 4,5.6569 0,0.6119 4.5,5.7015 10,11.3102 5.5,5.6087 10,10.6581 10,11.2209 0,0.5629 1.34949,1.7212 2.99886,2.5741 2.01103,1.04 4.13594,3.766 6.45082,8.2757 l 3.45195,6.7249 0.0554,-7.5 c 0.034,-4.607 0.63157,-8.6049 1.54918,-10.3643 0.90513,-1.7355 1.49384,-5.5906 1.49384,-9.7821 0,-3.887 0.65719,-8.4907 1.5,-10.5078 1.10986,-2.6563 1.50922,-7.6548 1.53544,-19.2179 0.0264,-11.6612 0.39817,-16.2625 1.46456,-18.1279 0.93162,-1.6297 1.44146,-5.5633 1.46456,-11.2997 0.0528,-13.1128 3.19485,-17.7003 12.12309,-17.7003 5.47537,0 9.43973,2.6246 11.53353,7.6358 1.94822,4.6627 1.86637,24.2616 -0.12118,29.0184 -1.1151,2.6689 -1.50158,7.6001 -1.50616,19.2179 -0.005,11.9084 -0.3617,16.3096 -1.5,18.4922 -0.98683,1.8922 -1.49593,5.7953 -1.5,11.5 -0.004,5.7047 -0.51318,9.6079 -1.5,11.5 -0.97997,1.879 -1.49384,5.76 -1.49384,11.2821 0,5.2203 -0.56978,9.7815 -1.5,12.0078 -0.825,1.9745 -1.5,5.1243 -1.5,6.9995 0,3.1707 -3.05174,13.7059 -5.05387,17.447 -1.10937,2.0728 -6.98662,4.8993 -10.18754,4.8993 -1.34153,0 -5.1028,-1.331 -8.35838,-2.9579 -5.76513,-2.8808 -9.40021,-6.9315 -9.40021,-10.4749 0,-2.8631 -6.12496,-13.9298 -10.12543,-18.2949 -2.13101,-2.3252 -3.87457,-4.6742 -3.87457,-5.22 0,-0.5458 -5.625,-6.7245 -12.5,-13.7305 -6.875,-7.0059 -12.5,-13.1444 -12.5,-13.6411 0,-0.4967 -1.72907,-2.9906 -3.84238,-5.5419 -2.11331,-2.5513 -4.36796,-5.5388 -5.01033,-6.6388 -0.92105,-1.5772 -1.05049,0.2196 -0.61233,8.5 1.3494,25.501 1.47583,64.4867 0.21697,66.9036 -2.40483,4.6171 -9.53189,7.9761 -13.75193,6.4814 z m 124.91245,-7.665 c -4.19866,-2.8295 -5.88451,-6.0476 -5.87772,-11.22 0.0142,-10.8276 8.4428,-45.8481 12.12279,-50.3697 1.28836,-1.583 3.08689,-4.2464 3.99673,-5.9185 2.93344,-5.3911 5.76886,-6.4639 18.4297,-6.973 6.31266,-0.2539 14.02751,-0.143 17.14411,0.2464 5.25641,0.6568 6.16107,1.1854 12.49936,7.3045 4.86823,4.6999 7.97424,8.8368 10.8027,14.3879 2.18343,4.2852 3.96988,8.4329 3.96988,9.2171 0,0.7841 1.34964,4.2786 2.99921,7.7655 1.64957,3.4869 2.99957,7.5223 3,8.9677 4.3e-4,1.4453 0.67579,4.2434 1.50079,6.2179 3.21402,7.6922 1.09009,17.061 -4.68982,20.6871 -4.28954,2.6911 -10.88687,2.1831 -14.39016,-1.108 -3.68299,-3.46 -7.42002,-12.1267 -7.42002,-17.208 0,-3.1442 -0.57591,-4.9281 -2.00996,-6.2259 -1.10548,-1.0005 -2.63518,-3.9243 -3.39933,-6.4975 -1.76199,-5.9333 -5.21849,-12.8409 -7.87788,-15.7435 -1.49317,-1.6297 -3.18763,-2.25 -6.1466,-2.25 -5.79719,0 -7.47389,2.8584 -9.64169,16.4372 -0.52132,3.2654 -1.84147,7.4517 -2.93368,9.3029 -1.0922,1.8511 -2.27128,5.9294 -2.62018,9.0628 -0.87961,7.8996 -2.6909,11.8122 -6.5605,14.1715 -4.33995,2.646 -8.72212,2.5595 -12.89773,-0.2544 z m 119.84321,-5.4748 c -4.71122,-2.9211 -5.75188,-6.6762 -5.7911,-20.8963 -0.0255,-9.2506 -0.43565,-13.549 -1.46456,-15.3489 -0.89526,-1.5661 -1.44237,-5.4418 -1.46456,-10.375 l -0.0354,-7.875 -3.25,0.6871 c -16.43536,3.4744 -24.73592,-0.1424 -24.74626,-10.7828 -0.007,-7.0995 5.5146,-12.6308 12.64739,-12.6699 1.56688,-0.01 5.54887,-0.6676 8.84887,-1.4644 3.3,-0.7968 7.43594,-1.4648 9.19098,-1.4844 1.75504,-0.02 3.43701,-0.4337 3.73771,-0.9202 0.30069,-0.4865 2.46475,-1.174 4.80901,-1.5277 2.34427,-0.3536 6.0623,-1.2858 8.2623,-2.0715 4.5495,-1.6246 20.8578,-1.9654 26.90748,-0.5621 2.14911,0.4985 5.07411,2.0729 6.5,3.4988 2.20951,2.2095 2.59252,3.4723 2.59252,8.5471 0,5.0748 -0.38301,6.3376 -2.59252,8.5471 -3.08265,3.0826 -8.06443,4.3917 -16.90748,4.4427 -10.64027,0.061 -11,0.2905 -11,7.0047 0,3.1687 0.675,7.3768 1.5,9.3513 2.13098,5.1001 2.14619,34.5039 0.02,38.6156 -3.45198,6.6754 -11.60758,9.1012 -17.76432,5.2838 z m -89.64968,-3.8095 c -8.50502,-7.1565 -3.82843,-21.4357 7.02041,-21.4357 7.58544,0 12.87361,4.9293 12.87361,12 0,10.0818 -12.23161,15.8832 -19.89402,9.4357 z m 156.85671,-0.1857 c -1.83477,-1.6441 -3.44006,-4.3585 -3.99192,-6.75 -1.27206,-5.5124 -1.21787,-61.0702 0.0641,-65.6857 1.53029,-5.5099 6.01592,-8.8143 11.96513,-8.8143 9.15081,0 13,6.1396 13,20.7354 l 0,6.8498 4.41251,1.1802 c 7.30745,1.9544 11.11058,9.6536 8.20437,16.6091 -1.61122,3.8562 -6.7248,7.6157 -10.36688,7.6218 -2.15775,0 -2.25,0.3545 -2.25,8.5609 0,16.4279 -3.50047,22.4428 -13.06095,22.4428 -3.943,0 -5.51064,-0.5405 -7.97636,-2.75 z m 46.91879,-1.7531 c -4.41972,-2.4018 -5.88148,-7.049 -5.88148,-18.698 0,-6.9869 -0.41014,-10.8084 -1.25,-11.6469 -1.42321,-1.4209 -2.39343,-33.3756 -1.24574,-41.029 0.96617,-6.4428 5.78196,-11.123 11.4454,-11.123 2.28231,0 5.4697,0.6826 7.08307,1.5169 5.07371,2.6237 5.96727,5.815 5.96727,21.3113 0,10.1178 0.41031,14.9096 1.5,17.5176 1.11556,2.6699 1.5,7.5835 1.5,19.1717 0,16.6395 -0.71162,19.7662 -5.21679,22.9218 -2.76703,1.9381 -10.38331,1.9697 -13.90173,0.058 z M 376,369.4711 c 5.873,-1.78724 32.3714,-15.14656 34.0462,-17.16455 2.7265,-3.28527 29.0658,-21.68477 38.4538,-26.86216 4.1173,-2.27066 9.9151,-6.04379 19.7073,-12.82517 8.6114,-5.96365 19.2376,-16.37985 33.7927,-33.12462 4.675,-5.37832 10.792,-12.19923 13.5933,-15.15758 2.8013,-2.95834 8.2013,-9.08992 12,-13.62574 3.7987,-4.53581 8.2939,-9.61992 9.9895,-11.29802 1.6955,-1.67809 5.6266,-6.08711 8.7358,-9.79781 3.1091,-3.71071 8.2469,-9.07824 11.4172,-11.92785 3.1703,-2.84962 6.4392,-6.1469 7.2642,-7.3273 0.825,-1.1804 4.7956,-5.45573 8.8236,-9.50072 4.028,-4.045 8.4688,-9.61427 9.8683,-12.37615 1.3996,-2.76189 3.5641,-6.61903 4.8102,-8.57143 2.3087,-3.61753 6.5071,-17.12608 8.407,-27.04982 2.903,-15.16333 4.3998,-20.66598 7.03,-25.84503 4.4977,-8.85617 10.0941,-13.15497 17.126,-13.15497 1.6142,0 2.9349,-0.52994 2.9349,-1.17763 0,-0.6477 -2.025,-5.16317 -4.5,-10.03438 -2.475,-4.87121 -4.498,-9.40377 -4.4955,-10.07237 0,-1.18148 -5.7858,-13.68181 -8.6691,-18.71562 C 603.8987,69.60798 594,49.22681 594,48.46385 c 0,-0.39691 -1.575,-2.78437 -3.5,-5.30546 -1.925,-2.5211 -3.5,-5.02306 -3.5,-5.55992 0,-0.97829 -9.2721,-17.16551 -13.5962,-23.73629 -1.2668,-1.925 -2.7126,-4.61865 -3.2129,-5.98589 -0.9017,-2.46444 -0.9268,-2.4515 -2.9083,1.5 -1.0994,2.19224 -2.2846,5.1772 -2.634,6.63324 -0.5813,2.42278 -2.572,5.26872 -10.2919,14.71329 -1.5108,1.84835 -4.3467,4.44889 -6.3018,5.77898 -1.9552,1.33009 -5.0591,3.51359 -6.8977,4.85222 -1.8385,1.33864 -5.8885,3.38131 -9,4.53927 -3.1114,1.15796 -8.7552,3.64967 -12.5416,5.53713 -3.7864,1.88747 -8.0614,3.44486 -9.5,3.46088 -1.4386,0.016 -5.7656,0.90291 -9.6156,1.97088 -9.489,2.63219 -21.5313,2.62253 -27.3592,-0.022 -2.3976,-1.08792 -5.3466,-1.97804 -6.5535,-1.97804 -5.994,0 -28.4592,-9.21231 -36.5983,-15.00786 -1.4251,-1.0147 -5.5798,-3.27258 -9.2327,-5.0175 -13.6301,-6.51072 -30.264,-26.32988 -35.895,-42.76855 -3.8426,-11.21772 -4.6372,-20.73522 -2.5354,-30.36775 0.8807,-4.03609 1.7768,-9.36334 1.9914,-11.83834 1.262,-14.55361 12.6088,-28.99003 35.5309,-45.20565 8.5556,-6.05247 16.9736,-11.63777 22.2975,-14.79435 2.319,-1.375 6.3722,-4.38782 9.007,-6.69517 4.8708,-4.26541 9.8425,-6.28921 15.4749,-6.29925 1.7201,-0.003 3.6875,-0.68032 4.3719,-1.505 1.0354,-1.24755 0.426,-2.45737 -3.6275,-7.20206 -2.6796,-3.13645 -7.0008,-8.64921 -9.6026,-12.25058 -5.741,-7.94651 -15.0139,-19.00393 -19.7694,-23.57387 -9.4529,-9.08414 -22.0386,-19.95023 -26.7059,-23.0571 -2.8633,-1.90597 -5.4713,-3.89467 -5.7956,-4.41934 -1.2119,-1.96085 -26.4785,-19.99759 -28.0135,-19.99759 -0.3435,0 -2.5057,-1.25126 -4.8048,-2.78057 -2.2991,-1.52932 -5.5302,-3.42806 -7.1802,-4.21943 -1.65,-0.79137 -4.8,-2.62822 -7,-4.0819 -6.46288,-4.27042 -28.53319,-14.9181 -30.92196,-14.9181 -1.20763,0 -4.86922,-1.62347 -8.13687,-3.60771 -3.26764,-1.98424 -7.69179,-4.23654 -9.83144,-5.00513 -2.13964,-0.76858 -5.28964,-2.24657 -7,-3.28442 -1.71035,-1.03784 -4.68473,-2.21598 -6.60973,-2.61808 -1.925,-0.40209 -5.525,-1.73563 -8,-2.96341 -4.29893,-2.13259 -15.5218,-5.04798 -28.5602,-7.41914 -3.3331,-0.60616 -10.9831,-1.10003 -17,-1.09748 -14.58292,0.006 -19.0685,1.73054 -31.86234,12.24867 -9.60113,7.89333 -21.03719,7.68181 -28.24051,-0.52231 -3.5488,-4.04186 -7.33695,-17.7133 -7.33695,-26.47905 0,-2.75027 -0.66424,-6.88315 -1.4761,-9.18419 -1.51641,-4.29798 -3.02249,-13.76286 -4.7049,-29.56775 -1.53772,-14.44559 -2.17414,-78.68356 -0.8768,-88.5 2.94054,-22.24976 5.46479,-33.08499 9.5466,-40.97834 l 1.70857,-3.30401 -4.34869,0.64261 c -13.54398,2.00139 -16.85616,2.63208 -21.84868,4.16027 -3.025,0.92594 -5.95,2.02814 -6.5,2.44932 -0.55,0.42118 -3.475,1.67143 -6.5,2.77833 -3.025,1.1069 -8.875,3.35246 -13,4.99014 -4.125,1.63767 -11.1,4.01775 -15.5,5.28906 -10.07038,2.90967 -30.00165,13.10459 -39,19.94864 -2.75,2.09162 -9.20397,6.54757 -14.34216,9.90211 -13.88481,9.06492 -13.21778,8.42472 -36.85726,35.37486 -3.74032,4.26415 -10.40058,11.77199 -14.80058,16.68411 -4.4,4.91211 -9.8,11.23509 -12,14.05107 -2.2,2.81598 -6.04613,7.45813 -8.54696,10.3159 -2.50083,2.85776 -5.20083,6.15931 -6,7.33677 -0.79917,1.17746 -4.04054,5.51201 -7.20304,9.63233 -3.1625,4.12032 -5.75,7.80087 -5.75,8.17899 0,0.37812 -1.4291,2.76462 -3.17578,5.30333 -1.74668,2.53871 -4.497,7.34478 -6.11182,10.68017 -1.61483,3.33539 -3.72844,7.18934 -4.69692,8.56434 -1.74695,2.48025 -5.07021,9.96464 -9.54655,21.5 -1.28057,3.3 -3.18211,7.8 -4.22563,10 -1.04353,2.2 -2.89719,8.5 -4.11925,14 -1.22207,5.5 -2.92103,12.025 -3.77547,14.5 -0.85445,2.475 -2.00944,6.975 -2.56664,10 -2.42556,13.16811 -4.25099,170.17043 -2.08701,179.5 1.55252,6.69335 6.51824,19.99834 10.14606,27.18501 1.61979,3.20878 3.69956,8.97983 4.62172,12.82456 0.92215,3.84474 2.50481,9.01543 3.51701,11.49043 1.0122,2.475 2.14879,6.75 2.52576,9.5 0.37696,2.75 1.33925,7.7 2.13841,11 C -47.87714,54.59865 -42,66.74504 -42,61.6319 c 0,-0.67665 1.58424,-3.79695 3.52053,-6.93398 1.93629,-3.13704 4.38827,-8.42 5.44885,-11.7399 1.06059,-3.31991 2.49548,-7.06212 3.18867,-8.31602 1.21251,-2.19331 4.97916,-12.65014 11.80762,-32.77982 1.77244,-5.225 4.08705,-11.42207 5.14359,-13.77126 1.05653,-2.34919 2.39931,-6.5017 2.98396,-9.22779 0.58464,-2.7261 1.96809,-7.32903 3.07433,-10.22874 1.10623,-2.89972 3.03939,-9.09721 4.2959,-13.77221 1.25652,-4.675 3.04548,-10.525 3.97548,-13 1.82311,-4.85184 3.65851,-10.74022 6.54567,-21 3.37392,-11.9895 11.95175,-36.70895 14.4961,-41.77465 1.38562,-2.75869 2.5193,-5.57163 2.5193,-6.25096 0,-0.67934 1.5719,-4.21399 3.49312,-7.85478 1.92121,-3.64078 4.41591,-9.17334 5.54377,-12.29456 1.12786,-3.12122 3.06636,-7.17169 4.30779,-9.00103 1.24143,-1.82935 3.85178,-6.25062 5.80079,-9.82505 1.94901,-3.57443 5.47544,-9.87397 7.83651,-13.99897 2.36107,-4.125 5.93654,-10.425 7.94548,-14 2.00895,-3.575 4.87211,-8.29196 6.36258,-10.48213 1.49048,-2.19018 2.70996,-4.53702 2.70996,-5.21521 0,-0.67819 1.29134,-2.71123 2.86964,-4.51786 1.57831,-1.80664 4.24158,-6.01172 5.9184,-9.34463 1.67682,-3.33291 3.7401,-6.63359 4.58506,-7.33486 0.84497,-0.70126 2.69312,-3.24897 4.10701,-5.66158 1.65712,-2.82767 7.78764,-8.75008 17.25073,-16.66514 8.07402,-6.75323 15.46263,-12.73107 16.41914,-13.28409 0.95651,-0.55303 5.63527,-4.60303 10.39725,-9 10.11502,-9.33971 12.07218,-10.38898 19.49088,-10.4494 13.22287,-0.10769 22.47085,10.63737 19.03251,22.11353 -1.97186,6.58149 -6.53215,10.94635 -23.57062,22.56052 -12.09144,8.24206 -25.83496,20.26059 -29.21527,25.54839 -1.7684,2.76629 -4.08204,5.97526 -5.14142,7.13104 -1.05938,1.15578 -3.34637,4.80142 -5.0822,8.10142 -1.73583,3.3 -4.68833,8.475 -6.56111,11.5 -1.87278,3.025 -4.82528,8.2 -6.56111,11.5 -1.73583,3.3 -4.11376,7.04244 -5.28429,8.31654 C 84.40144,-165.7803 65,-129.52741 65,-126.98965 c 0,0.64721 -1.29771,3.24113 -2.8838,5.76428 -1.58609,2.52315 -3.67063,7.06255 -4.63232,10.08755 -0.96168,3.025 -2.08986,5.95 -2.50706,6.5 -0.86335,1.13817 -10.65464,30.21932 -14.98263,44.5 -1.58353,5.225 -3.8037,12.2 -4.93372,15.5 -2.81891,8.23205 -9.43941,29.6053 -11.61586,37.5 -0.98557,3.575 -2.47135,7.85 -3.30174,9.5 -0.83038,1.65 -2.9777,7.725 -4.77182,13.5 C 10.96657,30.03955 4.70273,47.67178 2.72684,51.45466 1.83843,53.15552 0.2489,56.81747 -0.80547,59.59233 l -1.91702,5.0452 5.28911,0.43862 c 6.71425,0.5568 11.89599,4.31693 14.7073,10.67237 1.80333,4.07673 1.90628,5.2229 0.90004,10.02021 -1.10854,5.28499 -1.04365,5.60189 2.66399,13.00952 3.75137,7.49502 8.50137,14.46209 14.22742,20.8681 1.61456,1.8063 4.06801,5.51893 5.45209,8.25029 1.38409,2.73137 5.65888,9.73393 9.49953,15.56125 C 53.85765,149.28521 57,154.4915 57,155.02742 c 0,0.53593 1.38189,2.98292 3.07087,5.43777 1.68898,2.45485 4.32913,6.81093 5.867,9.68017 2.62846,4.904 4.1901,7.59436 13.73415,23.66086 2.10539,3.54422 7.47178,10.29422 11.9253,15 4.45353,4.70578 8.51529,9.3325 9.02612,10.2816 0.51084,0.9491 5.64204,6.67132 11.40268,12.71604 5.76063,6.04472 12.27388,13.26808 14.47388,16.05191 6.37912,8.07201 14.16257,17.27079 17.19836,20.32568 12.22518,12.30209 25.56365,24.18325 29.36445,26.15621 2.50955,1.30268 5.18129,3.11371 5.93719,4.02452 0.7559,0.91081 3.42764,2.69727 5.93719,3.96992 2.50954,1.27265 5.46281,3.31623 6.56281,4.54129 2.24114,2.49595 16.26282,11.98879 17.70838,11.98879 0.5122,0 2.90316,1.35669 5.31324,3.01487 2.41008,1.65818 6.31616,3.89171 8.68017,4.96339 2.36402,1.07168 6.09821,3.25137 8.29821,4.84376 7.69248,5.56792 18.06509,10.9477 26,13.48496 4.4,1.40694 12.5,3.96445 18,5.68336 5.5,1.7189 12.25,4.21274 15,5.54186 2.75,1.32912 7.925,3.15321 11.5,4.05352 3.575,0.90032 7.33052,2.0757 8.3456,2.61196 2.85181,1.50659 21.33667,5.79028 25.46811,5.902 2.02746,0.0548 4.81129,0.45997 6.18629,0.90032 4.35373,1.39431 29.0672,1.11005 34,-0.39108 z m -21.68618,-15.49974 c -3.69024,-2.3189 -4.73525,-4.03757 -7.25952,-11.93922 -1.01388,-3.17372 -3.01587,-7.49809 -4.44886,-9.60972 -4.82036,-7.10319 -3.0473,-18.72903 3.36183,-22.04331 3.77566,-1.95247 9.97911,-1.94322 12.78066,0.0191 5.02785,3.52164 12.22077,17.24059 15.24707,29.0805 2.282,8.92828 -2.3774,15.28132 -11.80184,16.09142 -3.48135,0.29925 -5.51586,-0.11356 -7.87934,-1.59874 z M 258,286.83429 c -2.475,-0.4734 -9.225,-1.58346 -15,-2.46681 -18.46517,-2.82442 -45.13011,-11.63367 -57.50627,-18.99824 -13.08734,-7.78777 -17.48343,-13.29713 -17.48999,-21.9192 -0.007,-9.82892 7.82161,-17.58786 17.74688,-17.58786 5.4895,0 8.46844,1.24343 15.32244,6.39567 3.35647,2.5231 7.76407,4.80212 10.58846,5.47492 2.66116,0.63392 7.31348,2.2395 10.33848,3.56796 8.00047,3.51347 15.61082,5.69947 23,6.60652 3.575,0.43884 10.65625,1.54147 15.7361,2.45028 6.47131,1.15775 11.85954,1.47124 18,1.04725 4.82015,-0.33283 27.8889,-0.92857 51.2639,-1.32387 l 42.5,-0.71873 11.5,-3.32263 c 6.325,-1.82745 13.975,-4.36537 17,-5.63983 3.025,-1.27446 7.3,-2.87367 9.5,-3.5538 2.2,-0.68013 4.675,-1.80211 5.5,-2.49329 0.825,-0.69119 3.9894,-2.42056 7.032,-3.84306 6.3205,-2.95501 22.6439,-17.57904 33.968,-30.43172 1.925,-2.18484 11.15,-11.86278 20.5,-21.50651 9.35,-9.64374 19.475,-20.56138 22.5,-24.26141 8.9148,-10.90413 12.6552,-14.27782 17.1811,-15.49652 13.5948,-3.66071 25.9083,7.09755 23.4038,20.44782 -1.002,5.3412 -12.7566,20.52545 -26.0849,33.69571 -3.85,3.80434 -7.675,7.65928 -8.5,8.56651 -0.825,0.90724 -7.7764,8.11662 -15.4476,16.02086 -7.6711,7.90424 -14.6461,15.42972 -15.5,16.72327 -4.0918,6.19912 -23.0645,22.56087 -30.5096,26.31098 -2.7735,1.39706 -6.1678,3.32738 -7.5428,4.28958 -2.7199,1.90336 -14.5826,6.82821 -19.4602,8.07898 -1.6719,0.42873 -6.1898,1.97018 -10.0398,3.42546 -3.85,1.45527 -12.175,4.06577 -18.5,5.80111 l -11.5,3.15516 -42.5,0.73092 c -23.375,0.402 -49.25,0.93439 -57.5,1.18308 -8.25,0.24869 -17.025,0.0648 -19.5,-0.40856 z m 81.5,-65.92886 c -1.1,-0.49647 -4.32615,-0.93431 -7.16923,-0.97296 -7.2214,-0.0982 -15.77456,-2.47844 -23.63697,-6.57792 -3.68394,-1.9208 -7.2596,-3.49514 -7.94593,-3.49853 -0.68633,-0.003 -2.59787,-0.73042 -4.24787,-1.61562 -3.54041,-1.89939 -15.95585,-5.99791 -21.08266,-6.9597 -1.98046,-0.37154 -5.47206,-2.09312 -7.75909,-3.82574 -2.28704,-1.73261 -6.31472,-4.40488 -8.95041,-5.93836 -5.26135,-3.06112 -10.21134,-9.11738 -11.22533,-13.73406 -1.06632,-4.8549 0.47279,-10.79986 3.7675,-14.55232 4.17605,-4.75626 8.02147,-6.52572 14.30453,-6.58217 4.71258,-0.0424 6.41425,0.59196 14.63895,5.45683 6.15769,3.64223 13.70501,6.94886 22.30651,9.77291 7.15,2.34748 16.6,6.07323 21,8.27944 6.44234,3.23025 9.38152,4.10248 15.09533,4.47969 6.97585,0.46053 7.13162,0.41747 9.25,-2.55753 1.18507,-1.66427 2.15467,-3.27836 2.15467,-3.58685 0,-0.3085 1.32976,-2.65772 2.95502,-5.22049 1.62527,-2.56277 3.47615,-7.16985 4.11309,-10.23794 0.63693,-3.0681 1.73457,-6.94941 2.43919,-8.62514 3.3136,-7.88042 4.79379,-34.7789 2.54347,-46.2205 -0.52208,-2.65446 -1.44914,-7.52629 -2.06013,-10.82629 -0.61099,-3.3 -1.71501,-7.35 -2.45337,-9 -0.73835,-1.65 -2.88986,-7.725 -4.78111,-13.5 -7.03315,-21.47585 -9.51261,-26.02436 -27.25578,-50 -9.6513,-13.04142 -12.96274,-17.86398 -14.07646,-20.5 -1.19065,-2.8181 -19.13836,-20.7695 -28.49413,-28.5 -11.61396,-9.59639 -8.49005,-26.4556 5.66453,-30.57044 10.24882,-2.97942 18.12318,1.16542 34.74394,18.28822 12.81936,13.20658 18.16767,19.56073 20.85925,24.78222 1.13406,2.2 3.69105,5.89666 5.68221,8.2148 6.52073,7.59154 8.81745,10.72523 10.96979,14.96735 1.16705,2.30018 2.59657,4.47551 3.17672,4.83406 0.58015,0.35855 2.17462,2.30158 3.54327,4.31785 1.36865,2.01627 3.5837,5.17019 4.9223,7.00872 1.3387,1.83852 3.3314,5.74148 4.4283,8.67323 1.0969,2.93175 3.5676,8.6275 5.4904,12.65723 1.9228,4.02972 4.434,10.86954 5.5806,15.19961 1.1465,4.33007 2.7308,9.12256 3.5207,10.65 0.7899,1.52743 2.6182,8.55965 4.0629,15.62715 2.2767,11.13772 2.6479,15.5616 2.7853,33.19951 0.098,12.586 -0.2974,22.50522 -1.0365,26 -0.6573,3.10777 -1.224,7.13534 -1.2593,8.95015 -0.035,1.81481 -0.6769,4.51481 -1.4257,6 -0.7488,1.48519 -2.7918,7.59538 -4.5399,13.57822 -1.7994,6.15805 -4.4628,12.7446 -6.1385,15.18017 -1.6281,2.36627 -2.9803,4.67122 -3.005,5.12213 -0.098,1.78205 -12.62591,18.79762 -15.27485,20.74591 -2.37984,1.75036 -4.48597,2.10869 -13.5,2.29688 C 346.30611,221.70778 340.6,221.40191 339.5,220.90543 z M 112,66.15653 C 99.90911,61.74132 89.55381,57.24071 86.85897,55.22978 85.01154,53.85118 82.11161,52.13343 80.4147,51.41255 74.56731,48.92848 64.23382,38.14253 60.85018,30.99138 c -1.72517,-3.64606 -3.92105,-7.7542 -4.87974,-9.1292 -0.95869,-1.375 -3.10572,-6.325 -4.77118,-11 -1.66545,-4.675 -3.74161,-10.17305 -4.61368,-12.21788 -1.20102,-2.81616 -1.58418,-7.18183 -1.57981,-18 0.005,-13.08401 0.25565,-15.06428 2.98445,-23.6059 3.46806,-10.85568 5.49335,-14.03681 11.62053,-18.25241 2.46283,-1.69448 7.35639,-5.94525 10.87458,-9.44616 3.51818,-3.50091 7.88574,-7.12722 9.70569,-8.05848 1.81994,-0.93126 4.88398,-2.92556 6.80898,-4.43178 4.59053,-3.59186 28.37633,-15.47309 34.01768,-16.99215 2.42656,-0.65341 5.48592,-2.03281 6.79857,-3.06534 1.31266,-1.03254 3.89996,-2.16124 5.74957,-2.50823 1.84961,-0.34698 3.90868,-1.28848 4.57572,-2.09221 2.02058,-2.43466 5.90283,-3.97438 15.85846,-6.28957 5.225,-1.21508 12.61595,-3.29613 16.42433,-4.62456 5.24823,-1.83068 9.00866,-2.41533 15.53511,-2.41533 8.60032,0 9.85577,0.30104 27.37426,6.56409 2.65854,0.95045 6.3695,3.17654 8.24658,4.94685 1.87708,1.77032 5.10191,4.40642 7.1663,5.858 9.63658,6.77604 12.60665,9.61035 16.7364,15.9714 9.37009,14.43272 10.77254,21.34512 10.21378,50.34145 -0.47638,24.72141 -1.6098,36.51416 -4.28871,44.62258 -2.13286,6.45564 -12.50039,22.08267 -16.17645,24.38285 -1.50238,0.94006 -5.08661,3.75751 -7.96496,6.26099 C 216.08991,47.5315 213.38058,49.65598 210,51.34975 c -1.925,0.96449 -4.25899,2.41829 -5.18664,3.23067 -1.90667,1.66974 -17.02207,7.49749 -26.81336,10.3379 -5.72543,1.66093 -9.95578,1.87969 -35.5,1.8358 -15.95,-0.0274 -29.675,-0.29632 -30.5,-0.59759 z m 60.61998,-37.62075 c 5.56599,-1.82814 11.36417,-4.30258 12.88486,-5.49875 1.52068,-1.19617 3.2064,-2.17485 3.74604,-2.17485 3.23485,0 22.7197,-16.82367 25.76942,-22.24992 3.18483,-5.66663 4.4797,-16.72293 4.4797,-38.25008 0,-24.57685 -0.56708,-26.09371 -13.27534,-35.50966 -12.63584,-9.36231 -17.4574,-10.99941 -25.42818,-8.63383 -6.50661,1.93103 -23.41248,6.5948 -26.73869,7.37632 -1.34321,0.31559 -4.44064,2.09925 -6.88317,3.96368 -5.52312,4.21589 -8.69271,5.85365 -13.17462,6.80746 -3.82795,0.81464 -22.3779,9.65292 -24.91776,11.87228 -0.87023,0.76041 -3.15724,2.1701 -5.08224,3.13264 -1.925,0.96253 -5.84765,3.8293 -8.71701,6.37059 -2.86936,2.54128 -6.97314,6.08219 -9.11952,7.86866 -7.33998,6.10923 -7.86397,15.0131 -1.84733,31.39042 7.88808,21.4714 13.72363,27.4369 33.68386,34.43399 5.84793,2.05 8.40604,2.28592 25.5,2.35176 18.91605,0.0729 19.04471,0.0585 29.11998,-3.25071 z M -20.77688,-92.25641 c -2.80321,-1.38756 -5.09054,-3.54084 -6.63825,-6.24921 -4.42308,-7.74004 -4.38372,-8.82377 1.47571,-40.6322 0.65856,-3.575 1.5532,-9.65 1.9881,-13.5 0.43491,-3.85 1.26128,-10.375 1.8364,-14.5 0.57512,-4.125 1.44978,-10.67723 1.94369,-14.5605 0.49392,-3.88328 1.49244,-8.15828 2.21893,-9.5 1.27027,-2.34602 2.31849,-6.92954 3.53088,-15.4395 0.8181,-5.74235 3.4145,-16.41687 4.98629,-20.5 0.74102,-1.925 2.06854,-6.425 2.95004,-10 3.37863,-13.70231 8.66343,-26.56046 16.44032,-40 10.95268,-18.92775 15.2532,-26.01078 16.11662,-26.54441 0.5262,-0.32521 1.89981,-2.47326 3.05246,-4.77344 1.15265,-2.30018 3.11089,-5.30715 4.35165,-6.68215 1.24076,-1.375 3.69753,-5.17222 5.4595,-8.43826 1.76196,-3.26604 4.34155,-7.29067 5.73242,-8.94363 1.39087,-1.65295 2.89773,-3.97558 3.34858,-5.1614 0.45084,-1.18581 3.21908,-4.96076 6.15163,-8.38876 2.93255,-3.42801 8.03191,-9.75177 11.33191,-14.0528 6.75689,-8.80656 27.00771,-27.03984 34.83858,-31.3677 6.84574,-3.78341 15.18267,-6.64745 19.35009,-6.64745 10.55722,0 18.71456,9.96549 16.96789,20.72897 -0.8539,5.26193 -5.36388,10.18082 -13.0393,14.22153 -11.05122,5.81789 -37.27936,31.69302 -44.14362,43.5495 -1.5921,2.75 -8.08749,12.94337 -14.43419,22.65194 -12.34335,18.88165 -21.09859,33.42005 -27.53945,45.73028 -4.20714,8.04098 -9.88119,24.62415 -10.92787,31.93818 -0.34006,2.37622 -1.22431,5.30122 -1.96502,6.5 -0.7407,1.19878 -1.83861,4.8796 -2.43978,8.1796 -0.60118,3.3 -1.82754,10.05 -2.72524,15 -0.8977,4.95 -2.1983,9.9 -2.89023,11 -0.69193,1.1 -1.5599,4.475 -1.92882,7.5 -0.36893,3.025 -1.08057,8.875 -1.58143,13 -0.50087,4.125 -1.41959,10.425 -2.04161,14 -0.62202,3.575 -1.51543,9.875 -1.98536,14 -1.83497,16.10734 -4.94457,28.61532 -8.29524,33.36653 -2.43714,3.45584 -8.92434,6.58171 -13.7194,6.61072 -1.925,0.0116 -5.4246,-0.93148 -7.77688,-2.09584 z M 676,158.28933 c 0,-1.57362 3.18,-8.30826 9.8814,-20.92715 2.3367,-4.4 5.5482,-11.6 7.1366,-16 1.5884,-4.4 4.2851,-11.81858 5.9928,-16.48574 1.7076,-4.66715 3.9318,-11.41715 4.9427,-15 1.0109,-3.58284 2.3203,-7.86426 2.9098,-9.51426 0.5895,-1.65 2.473,-7.49796 4.1855,-12.99546 1.7126,-5.4975 3.5105,-10.47351 3.9954,-11.05779 1.6768,-2.02044 8.0598,-28.00399 10.5502,-42.94675 1.3749,-8.25 3.194,-17.925 4.0424,-21.5 0.8484,-3.575 1.9807,-11.225 2.5162,-17 0.5354,-5.775 1.4344,-14.775 1.9977,-20 0.5633,-5.225 1.2436,-36.275 1.5117,-69 0.4925,-60.11171 0.2428,-66.28692 -3.1745,-78.5 -0.7694,-2.75 -2.1299,-8.57341 -3.0233,-12.9409 -0.8934,-4.3675 -2.6639,-9.9925 -3.9344,-12.5 -1.2706,-2.50751 -3.532,-8.6091 -5.0255,-13.5591 -2.8408,-9.41545 -9.208,-26.22327 -10.638,-28.08181 C 708.4,-261.62577 702,-278.18314 702,-280.07144 c 0,-1.00182 -0.6513,-2.36204 -1.4474,-3.0227 -0.796,-0.66067 -2.2437,-3.30327 -3.2171,-5.87245 -0.9733,-2.56918 -3.1823,-6.53339 -4.9087,-8.80936 -4.1655,-5.49127 -21.664,-34.92051 -23.4045,-39.36187 -0.7543,-1.925 -2.0966,-4.625 -2.9829,-6 -0.8863,-1.375 -2.268,-3.85 -3.0705,-5.5 -1.7181,-3.53272 -15.911,-25.71353 -19.1213,-29.88279 -1.2208,-1.58553 -3.86,-5.41053 -5.8649,-8.5 -5.2721,-8.1243 -20.7723,-22.96409 -28.324,-27.11721 -3.5002,-1.925 -8.1792,-5.075 -10.3978,-7 -2.2185,-1.925 -7.5723,-5.46755 -11.8973,-7.87234 -4.325,-2.40479 -10.3433,-5.85334 -13.3741,-7.66345 -9.1888,-5.48794 -23.5752,-12.46421 -25.7036,-12.46421 -1.1024,0 -4.4554,-1.30797 -7.4512,-2.9066 -6.8009,-3.62918 -45.015,-13.1601 -61.1915,-15.26168 -3.7712,-0.48995 -8.1364,-1.55251 -9.7003,-2.36127 -1.564,-0.80875 -4.1343,-1.47045 -5.7117,-1.47045 -1.5775,0 -5.1248,-0.67013 -7.8828,-1.48918 -2.7581,-0.81905 -9.2522,-2.14914 -14.4315,-2.95575 -11.1444,-1.73559 -25.4045,-4.85354 -28.9169,-6.3226 -1.375,-0.5751 -7.2055,-1.85507 -12.9566,-2.84437 -6.8485,-1.17806 -12.8195,-2.9311 -17.3041,-5.0803 -3.7661,-1.80485 -9.4986,-3.7085 -12.7389,-4.23034 -3.24031,-0.52183 -6.90123,-1.4892 -8.13542,-2.14972 -5.49425,-2.94043 -23.9737,-4.06583 -32.86498,-2.00147 -3.025,0.70234 -12.25,1.56875 -20.5,1.92536 -10.65551,0.46058 -15.8689,1.10375 -18,2.22065 -1.65,0.86476 -5.025,2.14633 -7.5,2.84795 -2.475,0.70162 -7.65,2.79359 -11.5,4.64883 -3.85,1.85524 -8.35,3.67678 -10,4.04788 -1.65,0.37109 -4.19754,1.51128 -5.6612,2.53375 -1.46366,1.02247 -4.83866,2.88756 -7.5,4.14464 -5.30286,2.50481 -14.3388,8.67605 -14.3388,9.79292 0,0.38679 -2.20828,2.12031 -4.9073,3.85226 -2.92061,1.87415 -5.57888,4.56426 -6.56616,6.64481 -0.91238,1.92269 -2.97419,4.99387 -4.5818,6.82484 -3.0245,3.44471 -8.01828,14.36862 -10.55536,23.08984 -3.01917,10.37846 -3.881,22.93022 -3.84508,56 0.0329,30.28485 0.61482,40.92885 3.36229,61.5 1.48174,11.09431 2.19246,11.61433 10.71629,7.841 4.37371,-1.93615 6.78668,-2.17423 23.37712,-2.30655 10.175,-0.0812 20.17718,0.21534 22.22707,0.65888 2.04989,0.44354 6.23894,1.05286 9.30899,1.35405 10.82669,1.06213 26.46487,5.65332 30.46394,8.94386 0.825,0.67883 2.91913,1.50108 4.65362,1.82722 1.73449,0.32614 6.05307,1.96291 9.59685,3.63726 3.54377,1.67436 7.13586,3.04428 7.98242,3.04428 0.84656,0 4.25866,1.81599 7.58245,4.03552 3.32378,2.21954 9.11256,5.09124 12.86395,6.38156 8.46591,2.91191 30.85231,13.815 33.70651,16.41643 1.1628,1.05983 4.3006,2.87718 6.9729,4.03858 2.6723,1.16139 6.3477,3.35279 8.1676,4.86977 5.7557,4.79766 11.825,8.9524 16.4737,11.27702 2.475,1.23765 5.9118,3.42722 7.6373,4.8657 1.7256,1.43848 7.5756,5.86006 13,9.82574 10.4149,7.61404 44.0412,40.82201 52.3627,51.71122 2.475,3.23871 6.3214,7.95629 8.5475,10.48351 2.2261,2.52722 7.3807,9.09495 11.4546,14.59495 4.074,5.5 9.0026,11.87582 10.9526,14.16849 1.9499,2.29267 4.8157,5.89267 6.3685,8 1.5527,2.10733 5.1527,6.9186 8,10.69172 2.8472,3.77311 6.0768,8.11811 7.1768,9.65555 2.1768,3.0425 7.4264,9.30834 14.5375,17.3518 6.0343,6.82548 12.3211,15.33144 14.4743,19.58354 0.9611,1.89811 2.3952,4.09875 3.1868,4.89031 0.7915,0.79157 2.1816,2.61357 3.0891,4.0489 0.9075,1.43533 4.8214,6.88469 8.6977,12.10969 9.2236,12.43289 12.5146,17.35758 12.5146,18.72703 0,0.61573 1.0654,2.39155 2.3675,3.94624 1.3021,1.5547 3.7671,5.60645 5.4776,9.00388 1.7106,3.39744 3.5374,6.4412 4.0596,6.76393 0.5221,0.32273 1.501,2.26801 2.1752,4.32285 0.6741,2.05484 3.186,6.71794 5.5818,10.36244 2.3959,3.64451 4.8634,8.14451 5.4833,10 0.6199,1.8555 2.1386,4.49863 3.3749,5.87363 C 623.6343,27.21381 643,65.39366 643,67.21059 c 0,0.46357 0.845,2.03732 1.8777,3.49722 1.0328,1.4599 3.126,5.80437 4.6518,9.65437 1.5257,3.85 4.0264,9.25 5.5571,12 1.5308,2.75 3.9181,9.5 5.3052,15 1.387,5.5 4.1163,14.8633 6.0651,20.80734 1.9487,5.94404 3.5435,11.79404 3.5439,13 9e-4,2.39335 2.61,15.51489 3.5959,18.08394 0.7111,1.85327 2.4033,1.17444 2.4033,-0.96413 z m 12.3948,-163.3736 c -7.2622,-1.73468 -11.2654,-7.28228 -13.7492,-19.05355 -0.8704,-4.125 -2.4703,-11.775 -3.5554,-17 -3.5875,-17.27437 -6.989,-30.14056 -10.4712,-39.60739 -0.831,-2.25907 -2.6814,-9.88853 -4.1121,-16.95437 -1.4307,-7.06583 -2.9774,-13.31751 -3.4373,-13.89261 -0.4598,-0.57509 -1.3162,-3.32612 -1.9032,-6.11338 -0.5869,-2.78726 -2.2386,-8.18726 -3.6705,-12 -1.4318,-3.81274 -4.1629,-11.43225 -6.0691,-16.93225 -3.0389,-8.76805 -7.8048,-19.56092 -12.1437,-27.5 -0.7514,-1.375 -2.0738,-4.075 -2.9387,-6 -3.0679,-6.82897 -5.5442,-11.61526 -10.8645,-21 -2.9621,-5.225 -6.3016,-11.35305 -7.4211,-13.61789 -1.1195,-2.26484 -2.6673,-4.64226 -3.4396,-5.28316 -0.7722,-0.64089 -1.9867,-2.61284 -2.6989,-4.38211 -1.3624,-3.3845 -6.3479,-11.83998 -13.3943,-22.71684 -6.3968,-9.87414 -11.14,-18.0828 -12.8992,-22.32344 -0.8724,-2.10289 -3.3953,-5.87875 -5.6065,-8.39079 -2.2111,-2.51204 -4.0325,-5.06649 -4.0474,-5.67656 -0.015,-0.61007 -2.0357,-3.35921 -4.4907,-6.10921 -2.4551,-2.75 -4.4679,-5.2764 -4.473,-5.61423 0,-0.33782 -2.5295,-3.26282 -5.6098,-6.5 -3.0804,-3.23717 -8.5929,-9.24297 -12.25,-13.34622 -3.6572,-4.10324 -11.2574,-12.24196 -16.8893,-18.08603 -5.632,-5.84406 -11.5506,-12.38686 -13.1525,-14.53955 -1.602,-2.15268 -7.344,-8.25539 -12.7601,-13.56157 -7.3282,-7.1794 -11.6384,-10.52268 -16.8475,-13.06805 -8.1994,-4.0065 -20.8503,-11.68454 -21.3417,-12.95258 -0.1879,-0.48496 -2.906,-2.62318 -6.0402,-4.7516 -3.1343,-2.12843 -6.334,-4.6354 -7.1105,-5.57106 -0.7766,-0.93565 -4.8084,-4.23225 -8.9597,-7.32578 -4.1514,-3.09352 -10.6979,-8.77809 -14.5479,-12.63237 -6.9333,-6.94099 -12.5905,-11.20092 -19.9648,-15.03375 -7.7731,-4.04003 -11.2896,-13.63488 -8.0787,-22.04253 1.9862,-5.20078 6.2234,-8.80617 12.2257,-10.40278 5.1874,-1.37986 10.4482,-0.31333 17.0056,3.44755 2.6467,1.518 6.8372,3.88593 9.3122,5.26207 2.475,1.37614 9.675,7.55663 16,13.73444 6.325,6.1778 14.2,13.03428 17.5,15.23662 3.3,2.20233 6.9,5.01524 8,6.2509 3.3174,3.72647 16.4085,12.18408 26.5,17.12047 8.7704,4.29016 10.507,5.67343 22.6116,18.01155 7.2113,7.35048 13.81,14.42162 14.6636,15.71366 0.8536,1.29203 8.5659,9.47711 17.1384,18.18905 8.5725,8.71195 15.5864,16.23877 15.5864,16.72627 0,0.48751 3.0375,4.08558 6.75,7.99572 9.6392,10.15231 15.5062,17.13893 18.2562,21.7398 1.315,2.2 3.6181,5.575 5.118,7.5 4.3215,5.54612 12.2793,19.06777 14.1875,24.1071 1.5541,4.10421 4.8425,9.1556 11.9048,18.28721 1.2311,1.59187 3.5016,5.39863 5.0455,8.45946 1.5439,3.06083 3.4547,6.28074 4.2462,7.15534 0.7915,0.8746 2.1378,3.5705 2.9918,5.99089 0.854,2.42039 2.1645,5.09805 2.9123,5.95035 0.7478,0.85231 2.5844,4.02465 4.0812,7.04965 1.4968,3.025 3.7594,6.625 5.028,8 1.2686,1.375 3.9659,6.76965 5.994,11.98811 2.0281,5.21847 4.4827,10.61847 5.4548,12 0.972,1.38154 2.111,3.63689 2.531,5.01189 0.4201,1.375 2.878,6.775 5.4621,12 2.584,5.225 5.5206,12.2 6.5257,15.5 1.0051,3.3 2.3668,6.9 3.0261,8 0.6593,1.1 1.9723,4.7 2.9177,8 0.9455,3.3 3.0349,10.31638 4.6431,15.59197 1.6082,5.27558 2.924,10.30767 2.924,11.18241 0,2.18078 5.451,22.97492 7.7923,29.72562 1.0492,3.025 2.4696,7.975 3.1564,11 0.6869,3.025 2.3295,9.01073 3.6501,13.30162 1.3207,4.29089 2.4012,9.40439 2.4012,11.36333 0,1.95894 0.9384,7.4435 2.0853,12.1879 2.2353,9.24668 2.0041,17.13975 -0.6524,22.27699 -1.9311,3.73428 -6.8664,7.61873 -11.214,8.82615 -4.1313,1.1474 -4.4158,1.15055 -8.8241,0.0976 z m -97.0403,-70.59438 c -1.73,-0.88424 -4.0525,-2.5868 -5.1612,-3.78344 -1.9549,-2.11007 -8.3266,-17.26183 -9.7685,-23.22923 -1.2857,-5.3207 -9.4711,-25.87114 -11.7288,-29.4465 -1.2156,-1.925 -5.1014,-9.22569 -8.6352,-16.22375 -3.5337,-6.99806 -8.1281,-14.87306 -10.2098,-17.5 -2.0816,-2.62694 -4.7638,-6.57625 -5.9605,-8.77625 -1.1966,-2.2 -3.9115,-5.97586 -6.0331,-8.39079 -2.1215,-2.41493 -3.8574,-5.05457 -3.8574,-5.86586 0,-1.19695 -10.4965,-12.8964 -24.2623,-27.04297 -12.9273,-13.28489 -36.1897,-33.20038 -38.7798,-33.20038 -0.4228,0 -2.5872,-1.4625 -4.8099,-3.25 -2.2227,-1.7875 -5.9778,-4.6728 -8.3446,-6.41177 -3.9635,-2.91208 -6.5193,-4.37809 -21.5452,-12.35863 -2.883,-1.53121 -9.408,-5.93857 -14.5,-9.79414 -5.092,-3.85557 -10.896,-7.68085 -12.8978,-8.50062 -2.0017,-0.81978 -5.3767,-3.0479 -7.5,-4.9514 -2.1232,-1.90349 -5.3468,-4.22115 -7.1636,-5.15035 -1.8167,-0.9292 -4.0815,-2.45302 -5.0329,-3.38627 -3.3017,-3.23886 -13.1922,-9.22668 -21.83898,-13.22148 -4.7813,-2.20896 -10.97289,-5.76958 -13.75909,-7.91249 -2.78621,-2.1429 -6.41583,-4.46845 -8.06583,-5.16789 -1.65,-0.69944 -4.8,-2.54914 -7,-4.11043 -9.45005,-6.70653 -20.58665,-13.36807 -28.5,-17.04775 -4.675,-2.17386 -9.52569,-4.43704 -10.77931,-5.02929 -4.83531,-2.28436 -14.98965,-11.60598 -16.09414,-14.77433 -3.09236,-8.87073 0.44847,-18.09674 8.42776,-21.95945 5.37783,-2.60336 11.17841,-2.35435 17.1477,0.73613 2.08889,1.08149 8.07299,4.13128 13.29799,6.77732 5.225,2.64604 16.025,8.73474 24,13.53044 7.975,4.7957 16.4014,9.6821 18.72534,10.85867 2.32393,1.17657 6.40572,4.07571 9.07066,6.44253 2.6649,2.36683 7.5135,5.36767 10.7746,6.66853 3.2612,1.30086 7.7294,3.57083 9.9294,5.04438 2.2,1.47354 5.7749,3.25798 7.9443,3.96541 2.1694,0.70743 5.9944,3.14951 8.5,5.42685 7.7335,7.0289 13.335,11.18205 18.8416,13.96995 2.9073,1.47189 6.9573,4.14695 9,5.94459 4.901,4.31294 12.3783,9.66149 13.5067,9.66149 0.4943,0 2.1759,0.90947 3.737,2.02105 1.561,1.11157 4.6214,2.65018 6.8009,3.41913 2.1794,0.76895 6.1466,3.0194 8.816,5.00101 2.6694,1.98161 6.1475,4.3805 7.729,5.33087 1.5815,0.95037 5.4683,3.64044 8.6372,5.97794 3.169,2.3375 6.1769,4.25 6.6843,4.25 0.5074,0 3.3706,2.03173 6.3628,4.51494 2.9921,2.48322 8.3309,6.87072 11.8639,9.75 9.7212,7.92247 44.7767,43.69068 48.7439,49.73506 0.9025,1.375 3.3305,4.75 5.3955,7.5 2.065,2.75 6.0866,8.825 8.9369,13.5 2.8503,4.675 6.8774,10.75 8.9491,13.5 2.0718,2.75 7.8453,13.325 12.8301,23.5 9.6189,19.63397 10.1751,20.9585 16.1669,38.5 0.9393,2.75 2.4912,7.25 3.4487,10 5.2562,15.09723 3.9548,23.48289 -4.6314,29.84327 -3.6723,2.72033 -13.0889,3.32393 -17.4089,1.1159 z m -96.2162,96.64158 c 4.201,-1.03161 8.926,-2.78376 10.5,-3.89367 1.5739,-1.10992 5.8782,-2.99028 9.5651,-4.17859 5.6542,-1.82239 7.543,-3.06737 12.0674,-7.95431 5.5545,-5.99947 7.8621,-10.90527 14.1,-29.97571 l 2.7482,-8.40153 -3.9508,-4.09847 c -2.1729,-2.25416 -4.6908,-5.56983 -5.5953,-7.36816 -2.5542,-5.07801 -21.983,-30.3301 -28.6186,-37.1962 -3.2749,-3.38864 -5.9543,-6.54805 -5.9543,-7.02091 0,-0.47286 -1.1391,-2.2135 -2.5313,-3.86807 l -2.5314,-3.00833 -9.098,5.56901 c -6.4759,3.96402 -10.4296,5.71196 -13.7186,6.065 -3.6302,0.38966 -7.0851,2.12874 -16.1167,8.11259 -6.3228,4.18913 -12.9517,8.8931 -14.7308,10.45327 -3.716,3.25877 -8.3414,6.72204 -13.0472,9.76923 -4.7924,3.10316 -8.0102,9.32161 -9.2133,17.80467 -0.5712,4.02717 -1.2974,7.74113 -1.6139,8.25325 -0.9996,1.61736 1.789,11.06571 4.5107,15.28329 1.4385,2.22909 3.9598,5.49605 5.603,7.25992 1.6431,1.76387 4.5022,5.02637 6.3535,7.25 1.8513,2.22363 3.7118,4.04297 4.1344,4.04297 0.4226,0 6.558,3.05649 13.634,6.7922 7.4672,3.94222 15.3832,7.34252 18.8656,8.10374 3.3,0.72135 7.8,1.88312 10,2.58172 5.5245,1.75425 6.0104,1.74174 14.6383,-0.37691 z"
       id="path3147"
       inkscape:connector-curvature="0" />
  </g>
</svg>
