<?xml version="1.0" encoding="UTF-8" standalone="no"?>
<!-- Created with Inkscape (http://www.inkscape.org/) -->

<svg
   xmlns:dc="http://purl.org/dc/elements/1.1/"
   xmlns:cc="http://creativecommons.org/ns#"
   xmlns:rdf="http://www.w3.org/1999/02/22-rdf-syntax-ns#"
   xmlns:svg="http://www.w3.org/2000/svg"
   xmlns="http://www.w3.org/2000/svg"
   xmlns:sodipodi="http://sodipodi.sourceforge.net/DTD/sodipodi-0.dtd"
   xmlns:inkscape="http://www.inkscape.org/namespaces/inkscape"
   width="391.77252"
   height="420.95795"
   id="svg3211"
   version="1.1"
   inkscape:version="0.48.4 r9939"
   sodipodi:docname="twitter.svg">
  <defs
     id="defs3213" />
  <sodipodi:namedview
     id="base"
     pagecolor="#ffffff"
     bordercolor="#666666"
     borderopacity="1.0"
     inkscape:pageopacity="0.0"
     inkscape:pageshadow="2"
     inkscape:zoom="0.98994949"
     inkscape:cx="267.19568"
     inkscape:cy="185.66768"
     inkscape:document-units="px"
     inkscape:current-layer="layer1"
     showgrid="false"
     inkscape:window-width="1181"
     inkscape:window-height="578"
     inkscape:window-x="1020"
     inkscape:window-y="184"
     inkscape:window-maximized="0"
     fit-margin-top="0"
     fit-margin-left="0"
     fit-margin-right="0"
     fit-margin-bottom="0" />
  <metadata
     id="metadata3216">
    <rdf:RDF>
      <cc:Work
         rdf:about="">
        <dc:format>image/svg+xml</dc:format>
        <dc:type
           rdf:resource="http://purl.org/dc/dcmitype/StillImage" />
      </cc:Work>
    </rdf:RDF>
  </metadata>
  <g
     inkscape:label="Layer 1"
     inkscape:groupmode="layer"
     id="layer1"
     transform="translate(-136.94516,-313.67101)">
    <path
       style="fill:none;stroke:#5dd7fc;stroke-width:4;stroke-linecap:butt;stroke-linejoin:miter;stroke-opacity:1;stroke-miterlimit:4;stroke-dasharray:none"
       d="m 247.85714,465.93361 c 6.21655,3.29387 11.98887,4.42858 16.42857,7.85714 4.90606,1.42913 11.30462,7.54949 15.9177,10.71746 1.48861,2.58425 4.60252,5.3489 7.65373,9.99683 2.21832,1.40523 4.4207,12.84965 6.42857,6.42857 3.56382,-6.67253 3.76044,-14.37512 6.42858,-22.14286 2.57275,-3.83963 4.53299,-9.54087 7.85714,-14.28571 1.31382,-3.6275 4.55042,-7.75451 6.42857,-10.71429 3.06444,-3.8131 4.18958,-7.11959 7.14286,-9.28571 1.90111,-4.45914 5.77551,-7.55488 7.85714,-10.71429 2.82212,-2.27308 6.58493,-5.76838 10.71429,-7.14285 3.16921,-2.08621 17.64079,-8.60047 11.42857,0.71428 -1.58814,6.20418 -4.57266,10.05335 2.34626,4.99683 1.55076,-2.53205 5.30076,-4.58358 9.08231,-7.13969 4.00115,-2.4072 7.97016,-4.21016 12.14286,-6.42857 9.27751,-3.79342 14.53998,0.39725 6.42857,7.14286 -0.88894,2.24752 -4.75441,4.67681 -4.28572,6.42857 3.1504,-2.82334 7.78727,-4.4138 10.71429,-7.14286 6.2083,-0.80948 18.9843,-2.34739 19.28571,2.85715 2.92311,5.25042 -1.53417,7.69852 -4.36233,9.68295 -4.34438,2.74487 -7.12846,5.01743 -12.06624,6.74562 -2.85366,2.61299 -11.97619,6.96592 -2.85714,3.57143 7.43204,-0.18587 15.81579,-0.18858 20.71428,2.14285 6.64858,2.46091 9.63027,4.67861 14.28572,7.14286 3.48995,3.44151 7.75162,6.25138 10.71428,9.28572 2.71792,2.97241 4.46528,5.58945 7.14286,9.28571 1.8693,4.60857 6.01657,10.42512 7.14286,16.42857 2.55692,6.71307 3.34423,14.80706 3.57143,23.57143 -1.30424,5.6035 -0.0509,13.48174 -4.28572,17.14286 -5.81765,6.28156 9.80811,0.92977 13.57143,1.42857 8.16756,-1.15202 13.03385,-4.21762 20.71429,-6.42857 7.72033,-5.69086 -0.2066,6.32911 -1.42857,8.57143 -2.5362,3.89899 -6.88961,8.98906 -11.42858,13.57142 -2.85164,2.62207 -6.44945,5.46077 -9.28571,7.85715 -6.80588,2.89541 8.32028,0.78567 11.90069,1.42857 7.63246,-0.1556 18.47093,0.54411 23.16701,-0.87374 -3.25271,2.67368 -6.4106,5.76708 -10.0677,7.30231 -4.96599,2.95854 -9.4276,6.10336 -15,7.85714 -7.03451,2.88805 -12.64049,5.20082 -20.68048,6.45473 -4.8933,3.55673 -4.42662,12.72716 -8.60523,17.83099 -2.33152,7.4353 -5.73093,12.62059 -10.71429,18.57143 -5.30312,7.37706 -11.21907,12.0601 -18.57143,17.85714 -3.70937,1.68715 -7.82488,6.12863 -12.85714,7.85714 -6.90355,4.54663 -15.38967,5.74715 -24.28572,8.57143 -8.39873,1.06964 -14.85974,4.07695 -23.57142,3.57143 -9.45078,1.27862 -19.31747,2.48412 -29.28572,2.85714 -10.9878,1.90506 -22.54181,2.44315 -34.44309,2.14286 -12.38855,0.36499 -23.92034,-0.50463 -35.55691,-2.85714 -12.73747,-1.6907 -24.02443,-4.13513 -35.71428,-7.14286 -5.92642,-2.15242 -12.03229,-4.11204 -17.85715,-8.57143 -4.81381,-2.97924 -10.09198,-8.66462 -14.28571,-12.85714 -3.96073,-3.21149 -6.42031,-8.14693 -10,-12.14286 -2.23707,-2.85331 -4.52284,-7.19399 -6.42857,-10.71428 -1.40407,-5.71806 -4.15457,-8.02714 -5.71429,-14.28572 -6.3525,-7.49616 7.95727,1.37273 10.71429,3.57143 6.63734,2.08241 12.16341,4.64575 20,6.42857 7.78331,3.09028 16.61919,4.00686 24.28571,7.14286 12.19381,1.7934 23.84303,4.95428 36.98261,4.32524 8.41865,-0.76766 16.15622,-3.01463 23.73168,-5.75381 5.88317,-1.78099 8.25916,-4.72968 13.57143,-7.14286 6.81106,-5.34315 -4.96064,-0.3725 -10.71429,-1.42857 -3.69587,-2.20653 -11.08058,-5.27868 -15,-10 -3.04065,-6.49917 2.01567,-12.29411 4.68295,-14.36233 7.04655,-4.42469 -10.99267,3.91412 -15.39724,3.64804 -10.49111,0.61701 -20.29228,-2.56835 -29.28571,-6.42857 -6.78004,-0.35713 -13.06081,-5.13769 -17.85714,-8.57143 -2.8285,-4.78744 -2.05648,-13.39202 1.42857,-16.42857 3.11525,-5.77226 14.86239,-2.8621 22.14286,-3.57143 14.4356,3.54269 1.10358,0.74993 -6.42858,-3.57143 -7.10814,-1.92695 -9.67054,-7.55508 -15.71428,-10 -1.71461,-2.46512 -6.21041,-5.67908 -9.48913,-8.5746 -1.11654,-2.1253 -5.45154,-12.2725 -2.65373,-14.99683 4.7133,-2.98694 13.65442,-0.87337 18.57143,0 -6.13295,-5.07646 -8.93063,-10.59241 -12.85714,-15.71428 -3.40533,-5.12595 -5.93958,-9.24195 -8.57143,-15.71429 -1.91757,-4.91868 -2.02915,-13.76722 -0.71997,-18.92454 10.44585,-1.76035 23.46127,1.5253 34.2914,3.21026 7.66906,1.77065 15.40465,1.24289 20.71428,7.85714 z"
       id="path3223"
       inkscape:connector-curvature="0" />
    <path
       id="path3257"
       style="fill:none;stroke:#ffffff;stroke-width:3px;stroke-linecap:butt;stroke-linejoin:miter;stroke-opacity:1"
       d="m 403.57143,719.50504 c 0,-0.95239 0.18678,-1.92326 0,-2.85715 -0.066,-0.33018 -0.5637,-0.41311 -0.71428,-0.71428 -0.10869,-0.21738 0,-1.82118 0,-2.14286 0,-1.66667 0,-3.33333 0,-5 0,-0.17323 -0.023,-2.11989 0,-2.14286 0.16835,-0.16836 0.54592,0.16836 0.71428,0 0.16836,-0.16836 -0.16836,-0.54592 0,-0.71428 0.16836,-0.16836 0.54593,0.16836 0.71429,0 0.16836,-0.16836 -0.16836,-0.54593 0,-0.71429 0.16836,-0.16836 0.47619,0 0.71428,0 0.2381,0 0.47619,0 0.71429,0 1.66667,0 3.33333,0 5,0 0.23809,0 0.47619,0 0.71428,0 0.2381,0 0.71429,-0.23809 0.71429,0 0,0.2381 -0.95238,0 -0.71429,0 0.4762,0 0.95239,0 1.42858,0 0.23809,0 0.71428,-0.23809 0.71428,0 0,0.2381 -0.47619,0 -0.71428,0 m -43.57143,10.71429 c -0.12378,-1.23396 4.53549,-0.48204 5,-0.71429 0.30117,-0.15058 0.43412,-0.52751 0.71428,-0.71428 3.60844,-2.40563 0.0165,-0.006 2.14286,-0.71429 0.50508,-0.16836 0.9235,-0.54593 1.42857,-0.71429 0.45176,-0.15058 1.00266,0.21296 1.42857,0 0.30117,-0.15058 0.41312,-0.5637 0.71429,-0.71428 0.21296,-0.10648 0.50133,0.10648 0.71428,0 2.97269,-1.48635 -0.76359,0.0493 0.71429,-1.42857 0.33672,-0.33672 1.09185,0.33671 1.42857,0 0.16836,-0.16836 -0.16836,-0.54593 0,-0.71429 0.31746,-0.31746 1.34921,0.55556 0.71429,-0.71428 -0.15059,-0.30117 -0.47619,-0.4762 -0.71429,-0.71429 -0.23809,-0.2381 -0.41311,-0.5637 -0.71428,-0.71429 -0.28321,-0.1416 -1.99684,0.14603 -2.14286,0 -0.16836,-0.16836 0.16836,-0.54592 0,-0.71428 -0.0324,-0.0324 -3.23465,0 -3.57143,0 -0.17323,0 -2.11989,-0.023 -2.14286,0 -0.33671,0.33672 0.33672,1.09185 0,1.42857 -0.16836,0.16836 -0.50132,-0.10648 -0.71428,0 -0.60234,0.30117 -0.82624,1.1274 -1.42857,1.42857 -0.21296,0.10648 -0.54593,-0.16836 -0.71429,0 -0.33672,0.33672 0.33672,1.09185 0,1.42857 -0.16836,0.16836 -0.54593,-0.16836 -0.71429,0 -0.16835,0.16836 0.10648,0.50133 0,0.71429 -0.62087,1.24175 -2.14285,2.1831 -2.14285,3.57143 0,3.04762 1.40952,2.85714 2.85714,2.85714 0.2381,0 0.54593,-0.16836 0.71429,0 0.16835,0.16836 -0.16836,0.54593 0,0.71429 0.33671,0.33671 1.09185,-0.33672 1.42857,0 0.16836,0.16835 -0.16836,0.54592 0,0.71428 0.35714,0.35714 1.78571,-0.35714 2.14285,0 0.16836,0.16836 -0.16835,0.54593 0,0.71429 0.16836,0.16836 0.4762,0 0.71429,0 1.42857,0 2.85714,0 4.28571,0 0.2381,0 0.4762,0 0.71429,0 0.2381,0 0.50133,0.10648 0.71429,0 0.30117,-0.15059 0.41311,-0.5637 0.71428,-0.71429 0.25831,-0.12915 3.07462,0 3.57143,0 m -35,-7.14286 3.57143,-0.71428 m -4.28572,-8.57143 c -0.87451,2.61341 -0.71428,5.18039 -0.71428,7.85714 0,0.47619 0,0.95238 0,1.42857 0,0.2381 0.10648,0.50133 0,0.71429 -0.15059,0.30117 -0.5637,0.41312 -0.71429,0.71429 -0.10648,0.21295 0,0.47619 0,0.71428 0,0.2381 0,0.47619 0,0.71429 0,1.42857 0,2.85714 0,4.28571 0,0.2381 0,0.47619 0,0.71429 0,0.23809 -0.16836,0.54592 0,0.71428 0.16836,0.16836 0.54593,-0.16836 0.71429,0 0.16836,0.16836 -0.16836,0.54593 0,0.71429 0.25073,0.25073 3.07805,-0.24669 3.57143,0 0.30117,0.15058 0.41311,0.5637 0.71428,0.71428 0.25831,0.12916 3.07462,0 3.57143,0 0.37352,0 2.66933,0.0939 2.85714,0 1.76529,-0.88264 -0.24655,-0.71428 1.42858,-0.71428 m -30,-12.14286 c 1.42857,0 2.85714,0 4.28571,0 m -0.71429,-11.42857 c -0.23809,0.95238 -0.47619,1.90476 -0.71428,2.85714 -0.2381,0.2381 -0.5637,0.41312 -0.71429,0.71429 -0.21296,0.42592 0.21296,1.00265 0,1.42857 -0.15058,0.30117 -0.5637,0.41312 -0.71428,0.71429 -0.21296,0.42591 0.33671,1.09185 0,1.42857 -0.16836,0.16836 -0.54593,-0.16836 -0.71429,0 -0.16836,0.16836 0.10648,0.50132 0,0.71428 -0.15058,0.30117 -0.5637,0.41312 -0.71428,0.71429 -0.28572,0.57143 0.28571,1.57143 0,2.14286 -0.15059,0.30116 -0.56371,0.41311 -0.71429,0.71428 -0.19375,0.38749 0.19544,2.6617 0,2.85714 -0.16836,0.16836 -0.54593,-0.16836 -0.71429,0 -0.16835,0.16836 0,0.47619 0,0.71429 0,0.23809 0,0.47619 0,0.71429 0,1.42857 0,2.85714 0,4.28571 0,0.23809 -0.16835,0.54593 0,0.71429 0.16836,0.16835 0.50133,-0.10648 0.71429,0 0.30117,0.15058 0.41312,0.5637 0.71429,0.71428 0.42591,0.21296 1.09185,-0.33672 1.42857,0 0.16836,0.16836 -0.16836,0.54593 0,0.71429 0.16836,0.16836 0.50132,-0.10648 0.71428,0 0.30117,0.15058 0.39485,0.6078 0.71429,0.71428 0.39501,0.13167 3.56639,0 4.28571,0 0.2381,0 0.54593,0.16836 0.71429,0 0.16836,-0.16836 -0.16836,-0.54592 0,-0.71428 0.16836,-0.16836 0.50133,0.10648 0.71428,0 1.76529,-0.88265 -0.24655,-0.71429 1.42858,-0.71429 m -24.28572,-12.85714 c 0,2.38095 0,4.7619 0,7.14286 0,0.23809 0,0.47619 0,0.71428 0,0.2381 -0.16836,0.54593 0,0.71429 0.16836,0.16836 0.54593,-0.16836 0.71429,0 0.16836,0.16836 0,0.47619 0,0.71428 0,0.2381 0,0.47619 0,0.71429 0,0.23809 0.23809,0.71428 0,0.71428 -0.2381,0 0,-0.95238 0,-0.71428 0,1.19047 0,2.38095 0,3.57143 m -46.42857,-10.71429 c 4.31157,-0.36502 -0.14418,2.71296 0.71428,3.57143 1.47788,1.47788 -0.0578,-2.2584 1.42857,0.71429 0.10648,0.21295 -0.10648,0.50132 0,0.71428 0.15059,0.30117 0.5637,0.41312 0.71429,0.71429 0.10648,0.21296 -0.16836,0.54592 0,0.71428 0.16836,0.16836 0.54593,-0.16836 0.71428,0 0.16836,0.16836 -0.16835,0.54593 0,0.71429 0.16836,0.16836 0.50133,-0.10648 0.71429,0 2.97269,1.48634 -0.7636,-0.0493 0.71429,1.42857 0.16835,0.16836 0.54592,-0.16836 0.71428,0 0.16836,0.16836 -0.16836,0.54593 0,0.71429 0.16836,0.16835 0.54593,-0.16836 0.71429,0 0.16836,0.16835 -0.16836,0.54592 0,0.71428 0.0324,0.0324 3.23464,0 3.57143,0 0.32168,0 1.92547,0.10869 2.14285,0 0.30117,-0.15058 0.41312,-0.5637 0.71429,-0.71428 0.21296,-0.10648 0.54593,0.16835 0.71428,0 0.16836,-0.16836 -0.10647,-0.50133 0,-0.71429 0.15059,-0.30117 0.56371,-0.41312 0.71429,-0.71429 0.10648,-0.21296 -0.16836,-0.54592 0,-0.71428 0.16836,-0.16836 0.54593,0.16836 0.71429,0 0.33671,-0.33672 -0.21296,-1.00266 0,-1.42857 0.15058,-0.30117 0.5637,-0.41312 0.71428,-0.71429 0.10648,-0.21296 -0.10648,-0.50133 0,-0.71428 0.15059,-0.30117 0.5637,-0.41312 0.71429,-0.71429 0.10648,-0.21296 -0.10648,-0.50133 0,-0.71429 0.15058,-0.30117 0.5637,-0.41311 0.71428,-0.71428 0.10648,-0.21296 -0.23809,-0.71429 0,-0.71429 1.42719,0 0.28871,1.71728 0.71429,2.14286 0.16836,0.16836 0.54593,-0.16836 0.71428,0 0.16836,0.16836 -0.16835,0.54593 0,0.71429 0.16836,0.16835 0.54593,-0.16836 0.71429,0 0.16836,0.16835 -0.10648,0.50132 0,0.71428 0.0948,0.18965 1.95321,2.04803 2.14286,2.14286 0.21296,0.10648 0.50132,-0.10648 0.71428,0 0.54564,0.27282 1.65918,1.98163 2.14286,2.14286 0.45175,0.15058 0.97682,-0.15059 1.42857,0 0.31944,0.10647 0.41312,0.5637 0.71429,0.71428 0.21296,0.10648 0.47619,0 0.71428,0 0.2381,0.2381 0.41312,0.5637 0.71429,0.71429 0.21296,0.10648 0.54593,-0.16836 0.71428,0 0.16836,0.16836 -0.16835,0.54592 0,0.71428 0.16836,0.16836 0.4762,0 0.71429,0 0.2381,0 0.47619,0 0.71429,0 1.19047,0 2.38095,0 3.57142,0 0.2381,0 0.54593,0.16836 0.71429,0 0.16836,-0.16836 0,-0.47619 0,-0.71428 0.2381,0 0.50133,0.10648 0.71429,0 0.18075,-0.0904 1.24782,-1.3382 1.42857,-1.42857 0.21296,-0.10648 0.54592,0.16835 0.71428,0 0.33672,-0.33672 -0.33671,-1.09186 0,-1.42858 0.16836,-0.16836 0.54593,0.16836 0.71429,0 0.14602,-0.14602 -0.14161,-1.85964 0,-2.14285 0.15058,-0.30117 0.5637,-0.41312 0.71428,-0.71429 0.10648,-0.21296 0,-0.47619 0,-0.71428 0,-0.2381 0,-0.4762 0,-0.71429 0,-1.42857 0,-2.85714 0,-4.28571 0,-0.26232 0.0288,-2.8284 0,-2.85715 -0.023,-0.023 -1.96962,0 -2.14285,0 m -62.14286,2.14286 c 1.19048,0 2.38095,0 3.57143,0 0.23809,0 0.50133,0.10648 0.71428,0 0.30117,-0.15059 0.41312,-0.5637 0.71429,-0.71429 0.21296,-0.10648 0.47619,0 0.71429,0 0.23809,0 0.47619,0 0.71428,0 1.42857,0 2.85714,0 4.28572,0 m -2.14286,-12.85714 c -0.71429,0.95238 -1.53036,1.83632 -2.14286,2.85714 -0.2112,0.352 0.2074,2.44236 0,2.85715 -0.15058,0.30117 -0.5637,0.41311 -0.71428,0.71428 -0.10869,0.21738 0,1.82118 0,2.14286 0,1.66667 0,3.33333 0,5 0,2.38095 0,4.7619 0,7.14286 0,0.37351 -0.0939,2.66932 0,2.85714 0.15058,0.30117 0.5637,0.41312 0.71428,0.71429 0.10648,0.21295 -0.10648,0.50132 0,0.71428 1.48634,2.97269 -0.0493,-0.7636 1.42857,0.71429 0.16836,0.16836 -0.10648,0.50132 0,0.71428 0.15059,0.30117 0.5637,0.41312 0.71429,0.71429 0.10648,0.21296 -0.16836,0.54592 0,0.71428 0.33672,0.33672 1.00265,-0.21296 1.42857,0 0.30117,0.15059 0.41312,0.5637 0.71429,0.71429 0.25831,0.12915 3.07461,0 3.57142,0 0.50629,0 4.10104,0.0923 4.28572,0 0.30117,-0.15059 0.47619,-0.47619 0.71428,-0.71429 0.2381,-0.23809 0.4762,-0.47619 0.71429,-0.71428"
       inkscape:connector-curvature="0" />
    <path
       style="fill:none;stroke:#ffffff;stroke-width:3px;stroke-linecap:butt;stroke-linejoin:miter;stroke-opacity:1"
       d="m 290.71429,344.50504 c -5.29886,-1.77346 2.84037,-0.43992 -6.42858,-2.85714 -4.31704,-3.94033 -12.04338,-5.09392 -11.42857,-12.85715 0.0851,-7.00924 7.2919,-7.85889 12.14286,-10.71428 6.28825,-5.64739 17.2984,-1.57591 25,-0.71429 4.47441,2.76669 11.59106,3.35738 12.14286,9.28572 2.33922,6.78922 -0.1014,13.41085 -2.85715,17.14285 M 141.42857,687.36218 c -2.92085,10.15303 -0.46124,21.57621 -2.14286,32.02178 -3.61616,12.78253 16.61976,6.40891 25,10.12108 20.80457,2.9288 42.43556,0.76499 63.60773,1.42857 20.56169,-1.17187 41.39042,-0.58007 62.10656,-0.71428 23.76007,3.41851 48.45768,1.74352 73.05081,2.14285 23.35251,0.12474 46.85508,1.68826 70.12108,0 27.2347,-1.70202 55.18641,0.30234 82.5424,-1.42857 8.54929,0.33054 13.97817,-1.38521 11.42857,-11.42857 -1.43455,-5.91352 -5.05827,-12.13883 -6.42857,-18.57143 -2.86048,-4.90874 -2.58788,-11.69732 -2.85715,-18.57143 -1.45568,-1.43545 -0.94247,-2.46884 -1.42857,-4.28571 M 244.28571,360.93361 c -7.94891,7.61216 -11.9986,17.20319 -15.71428,27.85714 -2.00767,9.86916 -7.5875,34.76571 -8.57143,47.14286 -4.58708,20.08072 -1.60865,41.15383 -5.71429,61.42857 -2.18531,15.52244 -4.70299,29.38208 -4.28571,45.47212 -0.66191,13.49943 -1.41625,27.20851 0.71429,40.39954 0.48138,10.0726 2.14449,20.36342 2.85714,29.84263 2.14616,9.69141 3.5812,19.32007 7.14286,28.57143 2.01874,9.06974 6.01815,18.40579 8.57142,26.42857 1.76921,6.36773 3.3236,12.82554 5,19.28571 M 355,355.93361 c 8.28395,15.27346 21.04131,27.17386 30,42.14286 10.25797,18.34004 18.94577,37.95499 26.42857,57.85714 2.265,11.72411 6.222,22.44941 8.57143,34.28571 2.57022,12.05313 6.64924,20.97106 9.28571,32.14286 5.11291,15.03058 8.98984,29.14341 11.42858,42.14286 3.8375,15.87856 4.00452,28.51558 6.42857,44.28571 0.96635,12.94536 2.70652,25.62079 3.57143,38.57143 1.27694,5.7427 1.40146,15.61844 1.42857,23.45035 -0.83198,4.73445 1.70052,15.79277 -1.42857,16.54965 l -0.71429,0 M 305,344.50504 c 0.67763,9.65096 3.46377,18.10744 3.57143,28.57143 1.84704,14.72273 -0.33131,31.11283 1.42857,45.87166 0.40504,18.25081 -1.98749,35.8412 -1.42857,54.12834 -0.96538,9.3155 -0.91554,18.87067 -1.42857,28.29297 0.2416,8.82337 -2.38468,17.04034 -1.42857,25.99274 -1.25194,9.47053 -1.13918,18.93699 -2.14286,28.45035 0.52611,11.10415 -1.71519,21.33316 -1.42857,32.26394 -1.31826,9.6185 -1.27362,19.73809 -2.14286,29.28571 -1.09178,8.08624 -1.29933,16.00883 -1.42857,24.28572 -1.46129,7.25508 -0.95246,15.8722 -2.14286,22.85714 0.4056,8.82007 -1.77917,17.50682 -2.85714,25 M 140.71429,675.21933 c 0.54438,-21.0384 -1.11163,-41.16536 -0.71429,-62.14286 -1.62092,-13.00689 -0.27769,-26.71353 -0.71429,-40 1.68298,-13.61471 5.45984,-26.4169 6.42858,-40.71429 1.85402,-11.16471 2.98576,-22.73786 5,-33.57143 2.58314,-9.30219 4.61975,-19.3864 7.59389,-28.39368 3.03436,-7.08401 4.2881,-12.13905 7.14286,-19.28572 3.25684,-6.40489 6.72877,-12.83461 9.54896,-19.46345 6.00267,-7.02368 7.45591,-16.08989 13.57143,-22.85715 3.0037,-5.88845 9.60646,-11.03049 12.85714,-17.14285 5.32041,-5.45108 9.74234,-9.92897 15.71429,-14.28572 8.94684,-5.99172 18.64762,-12.48212 28.57143,-17.14286 5.57639,-4.69711 13.11349,-7.47696 20.71428,-10.71428 6.44929,-1.83722 12.76168,-2.74972 19.28572,-3.57143 13.35054,-0.30337 27.85495,-2.1844 40.71428,0.71429 9.49936,2.77996 20.25935,5.06453 29.28572,7.85714 7.41303,2.38173 14.44682,4.65309 22.14285,7.14286 7.40035,1.69614 14.41701,4.69508 21.78576,7.17665 3.41371,1.43022 11.07642,6.04488 16.07139,7.82335 7.49522,5.86643 15.58956,11.75981 22.14285,20 6.66911,9.22944 13.95864,18.64926 19.28572,28.57142 3.35979,4.11038 8.41662,13.04324 11.42857,17.14286 2.76808,5.42389 5.64113,10.04112 9.28571,17.14286 3.65802,5.88429 4.92636,10.70223 8.57143,17.14286 2.48074,6.71348 6.17926,13.04575 8.57143,19.28571 2.62281,8.79186 5.45369,17.2613 8.57143,25.71429 1.81754,13.24205 6.40085,25.97838 7.85714,39.28571 1.88848,13.23627 3.83428,26.1003 3.57143,39.87892 -0.40771,17.21362 1.20795,33.58783 0.71429,50.83537 2.41312,8.72151 1.07499,18.99683 1.42857,28.57143 -9.80366,2.75559 -20.17459,3.42246 -30,5.71428 -13.90618,2.83661 -27.96472,4.72745 -42.14286,5.71429 -13.96414,0.65341 -27.92198,2.53203 -42.14286,2.14285 -23.38976,1.63065 -47.26637,0.26124 -70.84723,0.71429 -22.44471,0.29607 -44.72613,-0.12459 -66.453,-2.85714 -12.91311,-0.8461 -25.54394,-1.69042 -38.41405,-2.85715 -28.61591,-1.43122 -57.63032,-0.40669 -86.42857,-0.71428 0.78868,-4.68088 -2.00373,-8.1783 0,-12.85714 z"
       id="path3260"
       inkscape:connector-curvature="0" />
  </g>
</svg>
